<svg class="animated" id="freepik_stories-love-potion" xmlns="http://www.w3.org/2000/svg" viewBox="0 0 500 500" version="1.1" xmlns:xlink="http://www.w3.org/1999/xlink" xmlns:svgjs="http://svgjs.com/svgjs"><style>svg#freepik_stories-love-potion:not(.animated) .animable {opacity: 0;}svg#freepik_stories-love-potion.animated #freepik--Plants--inject-116 {animation: 6s Infinite  linear wind;animation-delay: 0s;}svg#freepik_stories-love-potion.animated #freepik--Potion--inject-116 {animation: 3s Infinite  linear floating;animation-delay: 0s;}svg#freepik_stories-love-potion.animated #freepik--Sparkles--inject-116 {animation: 1s 1 forwards ease-out slideUp;animation-delay: 0s;}            @keyframes wind {                0% {                    transform: rotate( 0deg );                }                25% {                    transform: rotate( 1deg );                }                75% {                    transform: rotate( -1deg );                }            }                    @keyframes floating {                0% {                    opacity: 1;                    transform: translateY(0px);                }                50% {                    transform: translateY(-10px);                }                100% {                    opacity: 1;                    transform: translateY(0px);                }            }                    @keyframes slideUp {                0% {                    opacity: 0;                    transform: translateY(30px);                }                100% {                    opacity: 1;                    transform: inherit;                }            }        </style><g id="freepik--Floor--inject-116" class="animable" style="transform-origin: 250.002px 370.544px;"><path id="freepik--floor--inject-116" d="M111.15,450.71c76.69,44.28,201,44.28,277.7,0s76.7-116.06,0-160.34-201-44.26-277.7,0S34.46,406.44,111.15,450.71Z" style="fill: rgb(250, 250, 250); transform-origin: 250.002px 370.544px;" class="animable"></path></g><g id="freepik--Shadow--inject-116" class="animable" style="transform-origin: 250.002px 413.851px;"><path id="freepik--shadow--inject-116" d="M181.42,453.45c37.88,21.86,99.28,21.86,137.16,0s37.88-57.32,0-79.19-99.29-21.87-137.16,0S143.54,431.58,181.42,453.45Z" style="fill: rgb(240, 240, 240); transform-origin: 250.002px 413.851px;" class="animable"></path></g><g id="freepik--Plants--inject-116" class="animable" style="transform-origin: 250.045px 278.675px;"><g id="freepik--Leaves--inject-116" class="animable" style="transform-origin: 350.209px 373.75px;"><path d="M388,351.84a9.3,9.3,0,0,0,7-5.59,9.16,9.16,0,0,0-1.19-8.75s-4.75,2.3-6.21,6.84S388,351.84,388,351.84Z" style="fill: rgb(186, 104, 200); transform-origin: 391.327px 344.67px;" id="elh2d2jgdb3c5" class="animable"></path><path d="M389.81,345.53c-2.48,7.72-8.56,14.81-13.9,20.74a105.22,105.22,0,0,1-18,16.16A90.37,90.37,0,0,1,332,394.51a128.36,128.36,0,0,1-14.09,3.25c-5.53.95-11.21,1.24-16.69,2.39-1.19.24-.44,2,.5,2.06,9.89.54,20.64-1.91,30.1-4.58A91.59,91.59,0,0,0,360,384.53c13.24-9.4,26.21-23,30.32-39.06.09-.35-.45-.17-.52.06Z" style="fill: rgb(55, 71, 79); transform-origin: 345.469px 373.779px;" id="el1zk44nigdjf" class="animable"></path><path d="M344.3,403.05s.85,7,9.77,6.95,16.37-8.3,16.37-8.3S361.22,397,355.35,397C348.32,397,346.21,400,344.3,403.05Z" style="fill: rgb(186, 104, 200); transform-origin: 357.37px 403.5px;" id="elltcxyt7stfs" class="animable"></path><path d="M335.64,385.79s5.29.42,7.5-8.22-3.89-17.94-3.89-17.94-6.89,7.72-8.38,13.41C329.1,379.84,332.49,384.47,335.64,385.79Z" style="fill: rgb(186, 104, 200); transform-origin: 337.003px 372.712px;" id="elfmqs69uxych" class="animable"></path><path d="M366.72,388.42a9.82,9.82,0,0,0,9.11,3.43c6.07-.78,9.56-8.51,9.56-8.51s-7.2-4.62-12.91-2.42A8.58,8.58,0,0,0,366.72,388.42Z" style="fill: rgb(186, 104, 200); transform-origin: 376.055px 386.15px;" id="el4gpb36fbmvy" class="animable"></path><path d="M355,371a9.84,9.84,0,0,0,7.44-6.28c2.27-5.69-2.77-12.5-2.77-12.5s-7.55,4-8.41,10.09A8.6,8.6,0,0,0,355,371Z" style="fill: rgb(186, 104, 200); transform-origin: 357.077px 361.61px;" id="el7viqoq3wms3" class="animable"></path><path d="M382.19,371.73a9.29,9.29,0,0,0,8.28,2.43c5.39-.86,9.34-7.84,9.34-7.84s-7.14-3.47-10.3-2.63S382.19,371.73,382.19,371.73Z" style="fill: rgb(186, 104, 200); transform-origin: 391px 368.95px;" id="elps4te4zbwj" class="animable"></path><path d="M376.78,338.28a8.68,8.68,0,0,1,3.15,6.93c.08,4.81-5,9.1-5,9.1s-3.84-5.81-3.6-8.67S376.78,338.28,376.78,338.28Z" style="fill: rgb(186, 104, 200); transform-origin: 375.626px 346.295px;" id="eloqrovz0kngg" class="animable"></path><path d="M360.82,403.18c-1.57.07-3.2-.06-4.79-.07s-3.21-.15-4.82-.28c-3.24-.27-6.49-.75-9.69-1.32-3-.55-6-1.21-9-1.93-2.83-.69-5.54-1.8-8.34-2.52-.82-.21-.9,1.12-.38,1.48,2.3,1.58,5.4,2.2,8.08,2.87,3,.75,6,1.42,9,2a66.82,66.82,0,0,0,9.35,1.11c1.83.08,3.63,0,5.46-.07a42.79,42.79,0,0,0,5-.74c.2,0,.47-.52.16-.5Z" style="fill: rgb(55, 71, 79); transform-origin: 342.232px 400.796px;" id="el9spv1ucz5hh" class="animable"></path><path d="M378.34,385.61c-1.69,1.07-4.2,1.14-6.14,1.29s-4.13.41-6.2.54a52.4,52.4,0,0,1-6.39,0l-3.83-.29a10.28,10.28,0,0,0-3.58-.1c-.49.15-.69,1.13-.14,1.34A15.82,15.82,0,0,0,356,389c1.31.15,2.63.34,4,.44a51.69,51.69,0,0,0,7,0c4-.25,8.64-.53,11.61-3.46.22-.21.07-.52-.22-.34Z" style="fill: rgb(55, 71, 79); transform-origin: 365.222px 387.572px;" id="elk2ci5k8dksh" class="animable"></path><path d="M338.31,372.21a38.69,38.69,0,0,0-1.83,5.93,33.9,33.9,0,0,0-1.1,5.73,25.75,25.75,0,0,0,.14,5.41c.22,1.56.52,3.78,1.73,4.92.34.31,1.16.36,1.23-.27.11-.9-.56-2-.8-2.84a16.06,16.06,0,0,1-.42-2.3,32.7,32.7,0,0,1-.21-4.64c.1-4,.29-8.15,1.79-11.94.16-.42-.41-.29-.53,0Z" style="fill: rgb(55, 71, 79); transform-origin: 337.084px 383.182px;" id="el6mhslbcix5a" class="animable"></path><path d="M358.25,358.85a11.64,11.64,0,0,0-1.5,2.17,30.75,30.75,0,0,0-1.33,3.25,35.88,35.88,0,0,0-1.75,7.45,37.16,37.16,0,0,0-.21,7.15c.13,2-.29,4.9,1.35,6.39a.58.58,0,0,0,.93-.14,6.35,6.35,0,0,0,0-2.78c0-1,0-1.91-.11-2.87a47.93,47.93,0,0,1,.81-13,29,29,0,0,1,1-3.54c.43-1.26.82-2.58,1.33-3.81a.3.3,0,1,0-.53-.3Z" style="fill: rgb(55, 71, 79); transform-origin: 356.094px 372.049px;" id="elrffsfzoxskk" class="animable"></path><path d="M392.93,369.19a42.49,42.49,0,0,1-6.13,1.17c-1.93.26-3.84.64-5.76.88-1.72.21-3.45.36-5.17.56a14.85,14.85,0,0,0-4.95,1c-.62.32-.46,1.66.33,1.58,1.91-.18,3.79-.67,5.7-.88s3.66-.35,5.46-.69,3.46-.69,5.15-1.16a36.82,36.82,0,0,0,5.39-2c.22-.11.35-.53,0-.43Z" style="fill: rgb(55, 71, 79); transform-origin: 381.853px 371.787px;" id="eldyn9n75cpvv" class="animable"></path><path d="M375.47,345.68a23.56,23.56,0,0,0-1.08,2.83,27.31,27.31,0,0,0-.59,3.1,43.59,43.59,0,0,0-.66,5.92,33.2,33.2,0,0,0,.54,5.8,23,23,0,0,0,1.12,5.52c.47,1.14,1.89.58,1.48-.58a22.64,22.64,0,0,1-.8-4.85,49.94,49.94,0,0,1-.57-5.16c0-1.8.17-3.62.23-5.42,0-.83.07-1.67.14-2.5a18.25,18.25,0,0,1,.74-4.53c.17-.49-.38-.54-.55-.13Z" style="fill: rgb(55, 71, 79); transform-origin: 374.747px 357.439px;" id="elohp9tiwz05" class="animable"></path></g><g id="freepik--leaves--inject-116" class="animable" style="transform-origin: 149.791px 373.75px;"><path d="M112,351.84a9.3,9.3,0,0,1-7-5.59,9.16,9.16,0,0,1,1.19-8.75s4.75,2.3,6.21,6.84S112,351.84,112,351.84Z" style="fill: rgb(186, 104, 200); transform-origin: 108.673px 344.67px;" id="elxt27nsmyz7l" class="animable"></path><path d="M110.19,345.53c2.48,7.72,8.56,14.81,13.9,20.74a105.22,105.22,0,0,0,18,16.16A90.37,90.37,0,0,0,168,394.51a128.36,128.36,0,0,0,14.09,3.25c5.53.95,11.21,1.24,16.69,2.39,1.19.24.44,2-.5,2.06-9.89.54-20.64-1.91-30.1-4.58A91.59,91.59,0,0,1,140,384.53c-13.24-9.4-26.21-23-30.32-39.06-.09-.35.45-.17.52.06Z" style="fill: rgb(55, 71, 79); transform-origin: 154.531px 373.779px;" id="elayk0qz2dff" class="animable"></path><path d="M155.7,403.05s-.85,7-9.77,6.95-16.37-8.3-16.37-8.3,9.22-4.71,15.09-4.71C151.68,397,153.79,400,155.7,403.05Z" style="fill: rgb(186, 104, 200); transform-origin: 142.63px 403.495px;" id="el3h42ero35l8" class="animable"></path><path d="M164.36,385.79s-5.29.42-7.5-8.22,3.89-17.94,3.89-17.94,6.89,7.72,8.38,13.41C170.9,379.84,167.51,384.47,164.36,385.79Z" style="fill: rgb(186, 104, 200); transform-origin: 162.997px 372.712px;" id="el89a2fgnj8ri" class="animable"></path><path d="M133.28,388.42a9.82,9.82,0,0,1-9.11,3.43c-6.07-.78-9.56-8.51-9.56-8.51s7.2-4.62,12.91-2.42A8.58,8.58,0,0,1,133.28,388.42Z" style="fill: rgb(186, 104, 200); transform-origin: 123.945px 386.15px;" id="elesrk7touro8" class="animable"></path><path d="M145,371a9.84,9.84,0,0,1-7.44-6.28c-2.27-5.69,2.77-12.5,2.77-12.5s7.55,4,8.41,10.09A8.6,8.6,0,0,1,145,371Z" style="fill: rgb(186, 104, 200); transform-origin: 142.923px 361.61px;" id="el9qjkm866jnq" class="animable"></path><path d="M117.81,371.73a9.29,9.29,0,0,1-8.28,2.43c-5.39-.86-9.34-7.84-9.34-7.84s7.14-3.47,10.3-2.63S117.81,371.73,117.81,371.73Z" style="fill: rgb(186, 104, 200); transform-origin: 109px 368.95px;" id="elw1jhiyb4wh" class="animable"></path><path d="M123.22,338.28a8.68,8.68,0,0,0-3.15,6.93c-.08,4.81,5,9.1,5,9.1s3.84-5.81,3.6-8.67S123.22,338.28,123.22,338.28Z" style="fill: rgb(186, 104, 200); transform-origin: 124.374px 346.295px;" id="eldvzxm4p3uyg" class="animable"></path><path d="M139.18,403.18c1.57.07,3.2-.06,4.79-.07s3.21-.15,4.82-.28c3.24-.27,6.49-.75,9.69-1.32,3-.55,6-1.21,9-1.93s5.54-1.8,8.34-2.52c.82-.21.9,1.12.38,1.48-2.3,1.58-5.4,2.2-8.08,2.87-3,.75-6,1.42-9,2a66.82,66.82,0,0,1-9.35,1.11c-1.83.08-3.63,0-5.46-.07a42.79,42.79,0,0,1-4.95-.74c-.2,0-.47-.52-.16-.5Z" style="fill: rgb(55, 71, 79); transform-origin: 157.793px 400.796px;" id="ela8pwq4i875f" class="animable"></path><path d="M121.66,385.61c1.69,1.07,4.2,1.14,6.14,1.29s4.13.41,6.2.54a52.4,52.4,0,0,0,6.39,0l3.83-.29a10.28,10.28,0,0,1,3.58-.1c.49.15.69,1.13.14,1.34a15.82,15.82,0,0,1-3.89.64c-1.31.15-2.63.34-4,.44a51.69,51.69,0,0,1-7,0c-4-.25-8.64-.53-11.61-3.46-.22-.21-.07-.52.22-.34Z" style="fill: rgb(55, 71, 79); transform-origin: 134.803px 387.599px;" id="eltxfjb7iofs" class="animable"></path><path d="M161.69,372.21a38.69,38.69,0,0,1,1.83,5.93,33.9,33.9,0,0,1,1.1,5.73,25.75,25.75,0,0,1-.14,5.41c-.22,1.56-.52,3.78-1.73,4.92-.34.31-1.16.36-1.23-.27-.11-.9.56-2,.8-2.84a16.06,16.06,0,0,0,.42-2.3,32.7,32.7,0,0,0,.21-4.64c-.1-4-.29-8.15-1.79-11.94-.16-.42.41-.29.53,0Z" style="fill: rgb(55, 71, 79); transform-origin: 162.917px 383.182px;" id="elh2gcy0amxsk" class="animable"></path><path d="M141.75,358.85a11.64,11.64,0,0,1,1.5,2.17,30.75,30.75,0,0,1,1.33,3.25,35.88,35.88,0,0,1,1.75,7.45,37.16,37.16,0,0,1,.21,7.15c-.13,2,.29,4.9-1.35,6.39a.58.58,0,0,1-.93-.14,6.35,6.35,0,0,1,0-2.78c.05-1,0-1.91.11-2.87a47.93,47.93,0,0,0-.81-13,29,29,0,0,0-1-3.54c-.43-1.26-.82-2.58-1.33-3.81a.3.3,0,1,1,.53-.3Z" style="fill: rgb(55, 71, 79); transform-origin: 143.907px 372.049px;" id="el7ii1bgpz9rk" class="animable"></path><path d="M107.07,369.19a42.49,42.49,0,0,0,6.13,1.17c1.93.26,3.84.64,5.76.88,1.72.21,3.45.36,5.17.56a14.85,14.85,0,0,1,5,1c.62.32.46,1.66-.33,1.58-1.91-.18-3.79-.67-5.7-.88s-3.66-.35-5.46-.69-3.46-.69-5.15-1.16a36.82,36.82,0,0,1-5.39-2c-.22-.11-.35-.53,0-.43Z" style="fill: rgb(55, 71, 79); transform-origin: 118.197px 371.787px;" id="elh41mbyn0wy7" class="animable"></path><path d="M124.53,345.68a23.56,23.56,0,0,1,1.08,2.83,27.31,27.31,0,0,1,.59,3.1,43.59,43.59,0,0,1,.66,5.92,33.2,33.2,0,0,1-.54,5.8,23,23,0,0,1-1.12,5.52c-.47,1.14-1.89.58-1.48-.58a22.64,22.64,0,0,0,.8-4.85,49.94,49.94,0,0,0,.57-5.16c0-1.8-.17-3.62-.23-5.42,0-.83-.07-1.67-.14-2.5a18.25,18.25,0,0,0-.74-4.53c-.17-.49.38-.54.55-.13Z" style="fill: rgb(55, 71, 79); transform-origin: 125.253px 357.439px;" id="elogxaum37d5" class="animable"></path></g><g id="freepik--leaves--inject-116" class="animable" style="transform-origin: 448.577px 239.605px;"><g id="freepik--leaves--inject-116" class="animable" style="transform-origin: 438.81px 297.54px;"><path d="M452.3,291.83s6.7-4.33,9.21-15.16c2-8.68-.17-13.4-1.11-13.45s-3.17,3.16-5.54,12.81C453.88,280.05,452.3,291.83,452.3,291.83Z" style="fill: rgb(240, 240, 240); transform-origin: 457.315px 277.525px;" id="el4onw51hgmzh" class="animable"></path><path d="M443.55,307.2c.55-.73,4-9,4.9-18.4.51-5-.72-7.73-1.79-7.4-.63.2-2.81,3.43-3.57,11.06S443,307.94,443.55,307.2Z" style="fill: rgb(240, 240, 240); transform-origin: 445.659px 294.311px;" id="elrw0niyp1xs" class="animable"></path><path d="M449,298.84c.42-.85,2.91-2.86,7.56-5.45,3.13-1.75,6.66-4,7.46-3.15s-1.63,4.8-5.26,6.84S448.55,299.69,449,298.84Z" style="fill: rgb(240, 240, 240); transform-origin: 456.575px 294.637px;" id="elwuhx3o51f4" class="animable"></path><path d="M439.69,313c.6-.91,6.27-3.63,8.89-4.86s5.9-2.13,7.13-1.26-1.32,3.93-5.9,5.65S439.1,313.93,439.69,313Z" style="fill: rgb(240, 240, 240); transform-origin: 447.834px 310.147px;" id="elm67mpi7bpbr" class="animable"></path><path d="M434.37,318.52c.79-.38,2.38-5.48,3.47-10.46s1.15-11.16-.64-10.69-3.27,3.84-3.88,9.19C432.64,312.49,433.59,318.89,434.37,318.52Z" style="fill: rgb(240, 240, 240); transform-origin: 435.849px 307.94px;" id="ely9kluqgp7pr" class="animable"></path><path d="M429.35,323.93c.17-.53,4.63-1.35,9.14-2.55s6.39-1.7,7.16-.52-1,3.84-6.07,4.68S429.17,324.46,429.35,323.93Z" style="fill: rgb(240, 240, 240); transform-origin: 437.584px 322.969px;" id="elfy2rd9u5fw" class="animable"></path><path d="M460,268.68a96.2,96.2,0,0,1-5.7,19.71,114.44,114.44,0,0,1-9.36,18.31,71,71,0,0,1-13.17,15.87c-5.24,4.47-11.46,8.12-18.27,9.29a.08.08,0,0,1,0-.15,45.31,45.31,0,0,0,17.31-10.26A84.44,84.44,0,0,0,443.93,306a112.67,112.67,0,0,0,9.67-17.94,95.38,95.38,0,0,0,6.24-19.44.08.08,0,0,1,.09-.06S460,268.64,460,268.68Z" style="fill: rgb(224, 224, 224); transform-origin: 436.724px 300.21px;" id="elsol7tlu8r9" class="animable"></path></g><g id="freepik--leaves--inject-116" class="animable" style="transform-origin: 454.34px 169.395px;"><path d="M458.78,191.44c-4.58-10.17-9.18-11.09-13-14-4.87-3.65-6.12-7.21-6.12-7.21-.05,3.38,2.3,12,8.05,15.27C452.49,188.27,455.91,187.88,458.78,191.44Z" style="fill: rgb(224, 224, 224); transform-origin: 449.22px 180.835px;" id="elfifng2btivo" class="animable"></path><path d="M459.92,174.89c5.71-4,8.77-9.85,7.95-16.54a22.36,22.36,0,0,1,1.15-11C457.42,157.22,458.31,170.19,459.92,174.89Z" style="fill: rgb(224, 224, 224); transform-origin: 464px 161.12px;" id="elfpa5na9kgj4" class="animable"></path></g><path id="freepik--Leavesz--inject-116" d="M472.83,273.52c1.93-4.12,2.59-8.56,3-13,.51-5.9.89-11.83,1-17.75,0-.58,0-1.16,0-1.74a15.75,15.75,0,0,0,3.12-2.65,9.22,9.22,0,0,0,1.53-2.58c1.16-3,0-7.45,2.15-9.9.14-.16.09-.58-.18-.41A16.91,16.91,0,0,0,476.6,234c-.14-2.8-.39-5.59-.78-8.37-.22-1.52-.41-3.1-.62-4.67,1.71-2.21,4-3.87,5.17-6.5.94-2.07.71-4.38.37-6.54a.2.2,0,0,0-.37-.09,20.92,20.92,0,0,1-3.16,4.2,12.53,12.53,0,0,0-2,2.44,7.4,7.4,0,0,0-.76,1.9c-.22-1-.47-2-.76-3,0-2.17.54-4,.29-6.23q-.1-1-.3-1.92c-.13-.6-.34-1.15-.53-1.74a18.23,18.23,0,0,0-1.95-3.9,26.91,26.91,0,0,0-4.52-5.78c-.29-.27-.46.29-.35.49s.2.41.28.61a16.17,16.17,0,0,1,1.26,4.72,8.31,8.31,0,0,1,.14,2,3.33,3.33,0,0,0-.07.78c0,.33.1.66.1,1a5.66,5.66,0,0,0,.14,1.16c.05.3.1.6.14.9,0,.13.1.37.05.48a2.06,2.06,0,0,1-.52-.37c-.21-.17-.42-.33-.62-.51-.66-.61-1.42-1.07-2.09-1.67s-1.49-1.39-2.3-2c-.31-.23-1-.52-.81.14a9.23,9.23,0,0,0,.68,1.71l.48,1.05c.25.54.47,1.1.72,1.64a19.29,19.29,0,0,0,2.92,4.55,18.59,18.59,0,0,0,1.71,1.83c1.43,1.28,2.94,2.49,4.25,3.91a14.33,14.33,0,0,1,1.16,1.44c.19,1.23.39,2.47.57,3.71a.88.88,0,0,1-.05.15.16.16,0,0,0,.11.2c.2,1.29.38,2.58.54,3.88a116.52,116.52,0,0,1,.64,15.06c-.23-.43-.49-.85-.69-1.26a18.14,18.14,0,0,1-1.46-3.94c.06-7.09-3-12.76-8.25-17.48-.24-.22-.46.18-.41.39.91,3.81,1.56,7.73,3,11.39-1.47-2.09-3.07-4.11-4.59-6.1a23.58,23.58,0,0,0-2.26-2.7,0,0,0,0,1,0,0c0-.17-.24-.46-.31-.63s-.19-.44-.27-.67c-.37-1-.7-2-1-3-.21-.61-.42-1.21-.66-1.81-.17-.44-.35-.84-.56-1.26a8.42,8.42,0,0,0-1.38-2.09c-.64-.7-1.35-1.33-2-2-1-1-2.19-1.79-3.3-2.67a13.22,13.22,0,0,0-1.85-1.4c-.32-.17-.6-.42-.91-.62a8,8,0,0,0-.9-.4c-.15-.08-.25,0-.3.17-.25.25.08.61.21.86a7.11,7.11,0,0,1,.48,1.41c.16.51.28,1,.43,1.53a18.13,18.13,0,0,0,1.58,3.81,16.9,16.9,0,0,0,2.22,3,18.25,18.25,0,0,0,2.94,2.68,30.29,30.29,0,0,0,3.34,2.06c4.37,3,6.56,8.27,10.14,12.08,1,2,2.34,3.91,4.45,4.2a12.59,12.59,0,0,0,1,3,23.54,23.54,0,0,0,1.41,2.85c-.07,5.16-.34,10.3-.75,15.44-.13,1.65-.27,3.3-.46,4.95-.39-1-.84-2-1.32-3a12.48,12.48,0,0,0-.27-7.26,31.41,31.41,0,0,0-1.48-3.23c-.92-1.76-2.54-3.37-3.16-5.24-.11-.36-.47-.12-.5.15-.7,7.34,4.1,13.07,6.61,19.55a31,31,0,0,1-2.51,9.41C471.6,273.4,472.54,274.15,472.83,273.52Zm-4.47-74.4a15,15,0,0,0-.94-3.55,34.28,34.28,0,0,1,2.37,3.13,39.74,39.74,0,0,1,2.22,3.5,10.45,10.45,0,0,1,.69,1.48c.12.34.23.68.36,1a9.09,9.09,0,0,1,.31,1.35,11.76,11.76,0,0,1,.09,1.56,13.85,13.85,0,0,1,0,1.7,26.82,26.82,0,0,0-.14,3.36,2.91,2.91,0,0,0-.43-1.07,8.31,8.31,0,0,0-.63-.92c-.2-.29-.39-.57-.57-.87a6.53,6.53,0,0,0-.58-.7c-.37-.46-.73-.92-1.05-1.41a9.11,9.11,0,0,1-1.07-2,11.28,11.28,0,0,1-.46-3.56A22,22,0,0,0,468.36,199.12ZM466.57,209l-.19-.24c-.22-.28-.45-.56-.65-.87-.39-.61-.81-1.2-1.14-1.84-.16-.29-.28-.6-.42-.9-.35-.75-.81-1.46-1.11-2.24-.05-.12-.32-.66-.08-.66s.55.42.66.52c.81.75,1.67,1.44,2.49,2.18.43.4.86.8,1.27,1.23a43.49,43.49,0,0,1,3.34,3.45,11.3,11.3,0,0,1,1,1.42c.16.27.3.55.44.84a18,18,0,0,1,1.49,4.81c-.06-.33-.54-.79-.75-1s-.59-.67-.91-1c-.58-.57-1.2-1.1-1.76-1.67a39.08,39.08,0,0,1-3.39-3.66C466.76,209.19,466.67,209.07,466.57,209Zm8.07,8.52c.24-2.07,1.64-3.74,3.1-5.23a17.19,17.19,0,0,0,1.68-1.83c.63-.86.58-2.16,1.07-.62.84,2.7-1.42,5.87-3.08,7.74a28.59,28.59,0,0,0-2.34,2.58C474.94,219.24,474.8,218.36,474.64,217.48Zm-15.59,2.13L458,219a18.69,18.69,0,0,1-3.29-2.42,16,16,0,0,1-2.7-3.1,22.67,22.67,0,0,1-2.47-5c-.09-.27-1-2.43-.53-2.49s1,.54,1.27.71c2.77,2,5.74,4.14,7.35,7.27a18.72,18.72,0,0,1,1.22,2.75c.18.57.36,1.15.55,1.71.09.29.19.57.3.85s.1.28.16.41.09.33.16.38A5.37,5.37,0,0,0,459.05,219.61Zm10.51,12.72v0c-.12-.19-.25-.37-.36-.56-2.06-3.71-2.76-8.83-3.55-12.55a25.27,25.27,0,0,1,5.53,7.17c1.54,3.11,1.55,6.06,1.92,9.35A8.81,8.81,0,0,1,469.56,232.33Zm7.19,7.8c0-1.34,0-2.69-.07-4a14.94,14.94,0,0,1,3.26-6.79c.32-.39,2.29-2.23,2.79-3-.21.55-.68,1.69-.69,1.71-.33,1.44-.26,2.93-.46,4.38a10.11,10.11,0,0,1-2.34,5.56A28.55,28.55,0,0,1,476.75,240.13ZM468.24,245c.41.72.94,1.37,1.39,2.06a29.64,29.64,0,0,1,2.48,4.65,13.9,13.9,0,0,1,.76,7.09C470.67,254.38,468.16,250,468.24,245Z" style="fill: rgb(224, 224, 224); transform-origin: 465.637px 233.744px;" class="animable"></path></g><g id="freepik--leaves--inject-116" class="animable" style="transform-origin: 51.496px 239.607px;"><g id="freepik--leaves--inject-116" class="animable" style="transform-origin: 61.2176px 297.542px;"><path d="M47.7,291.83s-6.7-4.33-9.21-15.16c-2-8.68.17-13.4,1.11-13.45s3.17,3.16,5.54,12.81C46.12,280.05,47.7,291.83,47.7,291.83Z" style="fill: rgb(240, 240, 240); transform-origin: 42.685px 277.525px;" id="els9g1ziw210p" class="animable"></path><path d="M56.45,307.2c-.55-.73-4-9-4.9-18.4-.51-5,.72-7.73,1.79-7.4.63.2,2.81,3.43,3.57,11.06S57,307.94,56.45,307.2Z" style="fill: rgb(240, 240, 240); transform-origin: 54.3411px 294.311px;" id="elyh3h0df1wvr" class="animable"></path><path d="M51,298.84c-.42-.85-2.91-2.86-7.56-5.45-3.13-1.75-6.66-4-7.46-3.15s1.63,4.8,5.26,6.84S51.45,299.69,51,298.84Z" style="fill: rgb(240, 240, 240); transform-origin: 43.4246px 294.637px;" id="el2pamnm0stnh" class="animable"></path><path d="M60.31,313c-.6-.91-6.27-3.63-8.89-4.86s-5.9-2.13-7.13-1.26,1.32,3.93,5.9,5.65S60.9,313.93,60.31,313Z" style="fill: rgb(240, 240, 240); transform-origin: 52.1657px 310.147px;" id="elcqn35mlymtf" class="animable"></path><path d="M65.63,318.52c-.79-.38-2.38-5.48-3.47-10.46S61,296.9,62.8,297.37s3.27,3.84,3.88,9.19C67.36,312.49,66.41,318.89,65.63,318.52Z" style="fill: rgb(240, 240, 240); transform-origin: 64.1492px 307.94px;" id="el2do0ahrptha" class="animable"></path><path d="M70.65,323.93c-.17-.53-4.63-1.35-9.14-2.55s-6.39-1.7-7.16-.52,1,3.84,6.07,4.68S70.83,324.46,70.65,323.93Z" style="fill: rgb(240, 240, 240); transform-origin: 62.416px 322.969px;" id="elylvco6zd9je" class="animable"></path><path d="M40,268.68a96.2,96.2,0,0,0,5.7,19.71,114.44,114.44,0,0,0,9.36,18.31,71,71,0,0,0,13.17,15.87c5.24,4.47,11.46,8.12,18.27,9.29a.08.08,0,1,0,0-.15,45.31,45.31,0,0,1-17.31-10.26A84.44,84.44,0,0,1,56.07,306,112.67,112.67,0,0,1,46.4,288.1a95.38,95.38,0,0,1-6.24-19.44.08.08,0,0,0-.09-.06S40,268.64,40,268.68Z" style="fill: rgb(224, 224, 224); transform-origin: 63.3039px 300.232px;" id="el5oewk4no5r2" class="animable"></path></g><g id="freepik--leaves--inject-116" class="animable" style="transform-origin: 45.66px 169.395px;"><path d="M41.22,191.44c4.58-10.17,9.18-11.09,13-14,4.87-3.65,6.12-7.21,6.12-7.21,0,3.38-2.3,12-8.05,15.27C47.51,188.27,44.09,187.88,41.22,191.44Z" style="fill: rgb(224, 224, 224); transform-origin: 50.78px 180.835px;" id="eliykfeb4zdu" class="animable"></path><path d="M40.08,174.89c-5.71-4-8.77-9.85-7.95-16.54a22.36,22.36,0,0,0-1.15-11C42.58,157.22,41.69,170.19,40.08,174.89Z" style="fill: rgb(224, 224, 224); transform-origin: 35.9996px 161.12px;" id="el9vl1jsdk09c" class="animable"></path></g><path id="freepik--leavesz--inject-116" d="M28.13,272.82a31,31,0,0,1-2.51-9.41c2.51-6.48,7.31-12.21,6.61-19.55,0-.27-.39-.51-.5-.15-.62,1.87-2.24,3.48-3.16,5.24a31.41,31.41,0,0,0-1.48,3.23,12.48,12.48,0,0,0-.27,7.26c-.48,1-.93,2-1.32,3-.19-1.65-.33-3.3-.46-4.95-.41-5.14-.68-10.28-.75-15.44a23.54,23.54,0,0,0,1.41-2.85,12.59,12.59,0,0,0,1-3c2.11-.29,3.49-2.24,4.45-4.2,3.58-3.81,5.77-9.09,10.14-12.08a30.29,30.29,0,0,0,3.34-2.06,18.25,18.25,0,0,0,2.94-2.68,16.9,16.9,0,0,0,2.22-3,18.13,18.13,0,0,0,1.58-3.81c.15-.52.27-1,.43-1.53a7.11,7.11,0,0,1,.48-1.41c.13-.25.46-.61.21-.86-.05-.13-.15-.25-.3-.17a8,8,0,0,0-.9.4c-.31.2-.59.45-.91.62a13.22,13.22,0,0,0-1.85,1.4c-1.11.88-2.25,1.71-3.3,2.67-.7.63-1.4,1.26-2,2a8.42,8.42,0,0,0-1.38,2.09c-.21.42-.39.82-.56,1.26-.24.6-.45,1.2-.66,1.81-.35,1-.68,2-1.05,3-.08.23-.17.45-.27.67s-.3.46-.31.63a0,0,0,0,1,0,0,23.58,23.58,0,0,0-2.26,2.7c-1.52,2-3.12,4-4.59,6.1,1.43-3.66,2.08-7.58,3-11.39,0-.21-.17-.61-.41-.39-5.27,4.72-8.31,10.39-8.25,17.48A18.14,18.14,0,0,1,25,239.41c-.2.41-.46.83-.69,1.26a116.52,116.52,0,0,1,.64-15.06c.16-1.3.34-2.59.54-3.88a.16.16,0,0,0,.11-.2.88.88,0,0,1-.05-.15c.18-1.24.38-2.48.57-3.71a14.33,14.33,0,0,1,1.16-1.44c1.31-1.42,2.82-2.63,4.25-3.91a18.59,18.59,0,0,0,1.71-1.83,19.29,19.29,0,0,0,2.92-4.55c.25-.54.47-1.1.72-1.64l.48-1.05a9.23,9.23,0,0,0,.68-1.71c.15-.66-.5-.37-.81-.14-.81.61-1.55,1.32-2.3,2s-1.43,1.06-2.09,1.67c-.2.18-.41.34-.62.51a2.06,2.06,0,0,1-.52.37c-.05-.11,0-.35,0-.48,0-.3.09-.6.14-.9a5.66,5.66,0,0,0,.14-1.16c0-.34.07-.67.1-1a3.33,3.33,0,0,0-.07-.78,8.31,8.31,0,0,1,.14-2,16.17,16.17,0,0,1,1.26-4.72c.08-.2.18-.41.28-.61s-.06-.76-.35-.49a26.91,26.91,0,0,0-4.52,5.78,18.23,18.23,0,0,0-1.95,3.9c-.19.59-.4,1.14-.53,1.74s-.23,1.28-.3,1.92c-.25,2.22.34,4.06.29,6.23-.29,1-.54,2-.76,3a7.4,7.4,0,0,0-.76-1.9,12.53,12.53,0,0,0-2-2.44,20.92,20.92,0,0,1-3.16-4.2.2.2,0,0,0-.37.09c-.34,2.16-.57,4.47.37,6.54,1.18,2.63,3.46,4.29,5.17,6.5-.21,1.57-.4,3.15-.62,4.67-.39,2.78-.64,5.57-.78,8.37a16.91,16.91,0,0,0-6.78-8.57c-.27-.17-.32.25-.18.41,2.18,2.45,1,6.89,2.15,9.9a9.22,9.22,0,0,0,1.53,2.58A15.75,15.75,0,0,0,23.24,241c0,.58,0,1.16,0,1.74.07,5.92.45,11.85,1,17.75.38,4.49,1,8.93,3,13C27.46,274.15,28.4,273.4,28.13,272.82Zm3.37-70.67a11.28,11.28,0,0,1-.46,3.56,9.55,9.55,0,0,1-1.07,2c-.32.49-.68,1-1,1.41a6.53,6.53,0,0,0-.58.7c-.18.3-.37.58-.57.87a8.31,8.31,0,0,0-.63.92,2.91,2.91,0,0,0-.43,1.07,26.82,26.82,0,0,0-.14-3.36,13.85,13.85,0,0,1,0-1.7,11.76,11.76,0,0,1,.09-1.56,9.09,9.09,0,0,1,.31-1.35c.13-.34.24-.68.36-1A10.45,10.45,0,0,1,28,202.2a39.74,39.74,0,0,1,2.22-3.5,34.28,34.28,0,0,1,2.37-3.13,15,15,0,0,0-.94,3.55A22,22,0,0,0,31.5,202.15Zm1.65,7.15A39.08,39.08,0,0,1,29.76,213c-.56.57-1.18,1.1-1.76,1.67-.32.32-.62.64-.91,1s-.69.71-.75,1a18,18,0,0,1,1.49-4.81c.14-.29.28-.57.44-.84a11.3,11.3,0,0,1,1-1.42,43.49,43.49,0,0,1,3.34-3.45c.41-.43.84-.83,1.27-1.23.82-.74,1.68-1.43,2.49-2.18.11-.1.48-.52.66-.52s0,.54-.08.66c-.3.78-.76,1.49-1.11,2.24-.14.3-.26.61-.42.9-.33.64-.75,1.23-1.14,1.84-.2.31-.43.59-.65.87l-.19.24C33.33,209.07,33.24,209.19,33.15,209.3Zm-8.22,10.82a28.59,28.59,0,0,0-2.34-2.58c-1.66-1.87-3.92-5-3.08-7.74.49-1.54.44-.24,1.07.62a17.19,17.19,0,0,0,1.68,1.83c1.46,1.49,2.86,3.16,3.1,5.23C25.2,218.36,25.06,219.24,24.93,220.12Zm15.1,0c.07,0,.12-.3.16-.38s.11-.27.16-.41.21-.56.3-.85c.19-.56.37-1.14.55-1.71A17.77,17.77,0,0,1,42.43,214c1.6-3.13,4.57-5.25,7.34-7.27.23-.17.94-.76,1.27-.71s-.44,2.22-.53,2.49a22.67,22.67,0,0,1-2.47,5,16.24,16.24,0,0,1-2.69,3.1,19.14,19.14,0,0,1-3.3,2.42l-1.1.63A5.37,5.37,0,0,0,40,220.1ZM26.9,235.7c.37-3.29.38-6.24,1.92-9.35a25.27,25.27,0,0,1,5.53-7.17c-.79,3.72-1.49,8.84-3.55,12.55-.11.19-.24.37-.36.56v0A8.81,8.81,0,0,1,26.9,235.7ZM20.76,238a10.11,10.11,0,0,1-2.34-5.56c-.2-1.45-.13-2.94-.46-4.38,0,0-.48-1.16-.69-1.71.5.77,2.47,2.61,2.79,3a14.94,14.94,0,0,1,3.26,6.79c0,1.33-.08,2.68-.07,4A28.55,28.55,0,0,1,20.76,238Zm6.37,20.84a13.9,13.9,0,0,1,.76-7.09,29.64,29.64,0,0,1,2.48-4.65c.45-.69,1-1.34,1.39-2.06C31.84,250,29.33,254.38,27.13,258.81Z" style="fill: rgb(224, 224, 224); transform-origin: 34.4826px 233.743px;" class="animable"></path></g></g><g id="freepik--Potion--inject-116" class="animable" style="transform-origin: 250px 241.84px;"><g id="freepik--potion--inject-116" class="animable" style="transform-origin: 250px 241.84px;"><g id="freepik--Bottle--inject-116" class="animable" style="transform-origin: 250px 255.827px;"><g id="freepik--Base--inject-116" class="animable" style="transform-origin: 249.959px 405.335px;"><path d="M305.64,418.82c6.53-8.85,5.11-20.72-2.32-28.57C290.45,375.07,271.4,370,250,370s-40.42,5.08-53.28,20.21c-5.42,5.9-8.27,14.39-5.59,22.19C206.23,448.94,284,449,305.64,418.82Z" style="fill: rgb(186, 104, 200); transform-origin: 249.959px 405.345px;" id="el06mz963e7b7j" class="animable"></path><g id="elmodkwgicj1b"><path d="M305.64,418.82c6.53-8.85,5.11-20.72-2.32-28.57C290.45,375.07,271.4,370,250,370s-40.42,5.08-53.28,20.21c-5.42,5.9-8.27,14.39-5.59,22.19C206.23,448.94,284,449,305.64,418.82Z" style="fill: rgb(255, 255, 255); opacity: 0.7; transform-origin: 249.959px 405.345px;" class="animable"></path></g><g id="elal3f1haa44i"><path d="M225.15,384.85c-7.72,5.72-21.09,23.13-22.76,25.94s0,8,1.63,9.21-2.79-.72-6.53-5.92-3.05-9.59-2.83-7.63Z" style="fill: rgb(186, 104, 200); opacity: 0.2; transform-origin: 209.807px 402.599px;" class="animable"></path></g><g id="elasq2506yvab"><path d="M237.94,390.44A105.79,105.79,0,0,0,230.15,425c-.2,3.34,1.61,7.88,5.35,8.39s-2.75.88-9.66-1.21-11.92-5.87-9.44-4.85S237.94,390.44,237.94,390.44Z" style="fill: rgb(186, 104, 200); opacity: 0.2; transform-origin: 226.848px 412.113px;" class="animable"></path></g><path d="M199.93,389.11c6.48-5.37,16.95-11.07,27.2-13,3.07-.59,5.88-1.34,6.4-2s-.67-1.45-2.91-1.57a28.17,28.17,0,0,0-4.08,0c-3.64.31-12.42,2.93-20.2,8.66a45.86,45.86,0,0,0-7.93,7.35C196.67,390.81,197.53,391.11,199.93,389.11Zm28.51-6.46c2.62-1.7,4.38-3.58,4.14-4.41s-2.67-1.22-5.69-.42a72.63,72.63,0,0,0-27.52,14.85c-2.37,2-5.14,6.26-5.19,9.39a17.58,17.58,0,0,0,.48,4.39c.71,3,3.57,3.21,5.58.81A125.57,125.57,0,0,1,228.44,382.65Zm44.42-6.56c10.25,2,20.72,7.65,27.2,13,2.4,2,3.26,1.7,1.52-.58a45.86,45.86,0,0,0-7.93-7.35c-7.78-5.73-16.56-8.35-20.2-8.66a28.17,28.17,0,0,0-4.08,0c-2.24.12-3.42.87-2.91,1.57S269.79,375.5,272.86,376.09ZM238.09,383c-1.51-.69-4.8-.16-7.41,1.56-11.46,7.55-21,16.21-28.29,26.26a6.7,6.7,0,0,0,.92,8.63,57.49,57.49,0,0,0,15.56,8.91,5.25,5.25,0,0,0,6.88-3.64,265.09,265.09,0,0,1,12.76-35.52C239.79,386.32,239.61,383.67,238.09,383Zm62.53,9.7a72.63,72.63,0,0,0-27.52-14.85c-3-.8-5.45-.41-5.69.42s1.52,2.71,4.14,4.41a125.57,125.57,0,0,1,28.2,24.61c2,2.4,4.87,2.23,5.58-.81a17.58,17.58,0,0,0,.48-4.39C305.77,398.93,303,394.71,300.62,392.67Zm-31.31-8.14c-2.61-1.72-5.9-2.25-7.41-1.56s-1.7,3.35-.42,6.2a263.71,263.71,0,0,1,12.76,35.52,5.25,5.25,0,0,0,6.88,3.64,57.49,57.49,0,0,0,15.56-8.91,6.7,6.7,0,0,0,.92-8.63C290.35,400.74,280.77,392.08,269.31,384.53Zm-11.85,3.79a4.9,4.9,0,0,0-4.88-3c-.76.05-1.63.09-2.58.09s-1.83,0-2.59-.09a4.88,4.88,0,0,0-4.87,3,334.9,334.9,0,0,0-12.81,38.17,5.19,5.19,0,0,0,4.11,6.58,95.31,95.31,0,0,0,32.32,0,5.19,5.19,0,0,0,4.11-6.58A336.88,336.88,0,0,0,257.46,388.32Z" style="fill: rgb(186, 104, 200); transform-origin: 249.995px 403.453px;" id="ell685a4fphzo" class="animable"></path><g id="el9q50j6xd39"><path d="M199.93,389.11c6.48-5.37,16.95-11.07,27.2-13,3.07-.59,5.88-1.34,6.4-2s-.67-1.45-2.91-1.57a28.17,28.17,0,0,0-4.08,0c-3.64.31-12.42,2.93-20.2,8.66a45.86,45.86,0,0,0-7.93,7.35C196.67,390.81,197.53,391.11,199.93,389.11Zm72.93-13c10.25,2,20.72,7.65,27.2,13,2.4,2,3.26,1.7,1.52-.58a45.86,45.86,0,0,0-7.93-7.35c-7.78-5.73-16.56-8.35-20.2-8.66a28.17,28.17,0,0,0-4.08,0c-2.24.12-3.42.87-2.91,1.57S269.79,375.5,272.86,376.09Zm-44.42,6.56c2.62-1.7,4.38-3.58,4.14-4.41s-2.67-1.22-5.69-.42a72.63,72.63,0,0,0-27.52,14.85c-2.37,2-5.14,6.26-5.19,9.39a17.58,17.58,0,0,0,.48,4.39c.71,3,3.57,3.21,5.58.81A125.57,125.57,0,0,1,228.44,382.65Zm72.18,10a72.63,72.63,0,0,0-27.52-14.85c-3-.8-5.45-.41-5.69.42s1.52,2.71,4.14,4.41a125.57,125.57,0,0,1,28.2,24.61c2,2.4,4.87,2.23,5.58-.81a17.58,17.58,0,0,0,.48-4.39C305.77,398.93,303,394.71,300.62,392.67Zm-31.31-8.14c-2.61-1.72-5.9-2.25-7.41-1.56s-1.7,3.35-.42,6.2a263.71,263.71,0,0,1,12.76,35.52,5.25,5.25,0,0,0,6.88,3.64,57.49,57.49,0,0,0,15.56-8.91,6.7,6.7,0,0,0,.92-8.63C290.35,400.74,280.77,392.08,269.31,384.53Zm-11.85,3.79a4.9,4.9,0,0,0-4.88-3c-.76.05-1.63.09-2.58.09s-1.83,0-2.59-.09a4.88,4.88,0,0,0-4.87,3,334.9,334.9,0,0,0-12.81,38.17,5.19,5.19,0,0,0,4.11,6.58,95.31,95.31,0,0,0,32.32,0,5.19,5.19,0,0,0,4.11-6.58A336.88,336.88,0,0,0,257.46,388.32ZM238.09,383c-1.51-.69-4.8-.16-7.41,1.56-11.46,7.55-21,16.21-28.29,26.26a6.7,6.7,0,0,0,.92,8.63,57.49,57.49,0,0,0,15.56,8.91,5.25,5.25,0,0,0,6.88-3.64,265.09,265.09,0,0,1,12.76-35.52C239.79,386.32,239.61,383.67,238.09,383Z" style="fill: rgb(255, 255, 255); opacity: 0.8; transform-origin: 249.995px 403.448px;" class="animable"></path></g><g id="elyw8wxd9hkom"><path d="M247.35,387c-2.28,0-2.49,1.31-3.92,5s-9.71,29.06-9.78,32.9,2.5,5.43,8,5.73,10.39.14,10.39-3.8-.8-29.71-.94-33.5c-.18-4.87.47-6.31-2.19-6.31C248.41,387.05,248,387,247.35,387Z" style="fill: rgb(255, 255, 255); opacity: 0.3; transform-origin: 242.844px 408.864px;" class="animable"></path></g><g id="eldkapbx36fnr"><path d="M263.13,384.4c-1.47.75-.49,2.85,1.4,6s7.75,18.47,9.77,25.05c1.88,6.16,3.14,8.78,5.39,9.56s9.12-3.28,11.36-4.67.77-2.66-1.65-2.24-5.31.86-7.17-3.5-5.47-13.18-9.25-18.91S264.82,383.54,263.13,384.4Z" style="fill: rgb(255, 255, 255); opacity: 0.3; transform-origin: 277.288px 404.715px;" class="animable"></path></g><g id="ellxpbxnx3d9"><path d="M304,399.52c.36,1.37.51,5.4,0,6.49a1.45,1.45,0,0,1-1.47.87c-.76-.14-2.09-1.37-3.08-2.64A124.16,124.16,0,0,0,284,388.94c-3.5-2.63-11.81-8.29-13-8.86s-.77-1.48,1.48-.9,8.74,3.5,16.53,9.51c3.75,2.89,11.12,10.55,12.35,11.09s1.35-1.49,1.86-1.36S303.86,399,304,399.52Z" style="fill: rgb(255, 255, 255); opacity: 0.3; transform-origin: 287.34px 392.94px;" class="animable"></path></g><g id="elh3jv2k6q1ca"><path d="M232.28,385.49A115.82,115.82,0,0,0,216.62,398c-5.27,4.93-12.13,13.1-12.92,15.64s2.46,6.24,6.11,8.27,6.41,3.62,8,3.29.83-2.17-2.08-4.41-3.83-7.22-1.51-11.83,15.27-18.07,20.06-21.86C237.05,384.88,235,383.69,232.28,385.49Z" style="fill: rgb(255, 255, 255); opacity: 0.3; transform-origin: 219.589px 404.929px;" class="animable"></path></g><g id="el5wke2n5ka6w"><path d="M226.85,378.69c-2.6.5-11.73,4.65-17,8s-10.78,7.88-12,9.81a12.68,12.68,0,0,0-2.11,6.76c-.06,2.74.69,3.76,1.78,3.6s1.58-2.92,2.3-5.22a24.6,24.6,0,0,1,6-8.94c3.54-3.5,14.95-10.29,20-12.41C228.75,379.09,230.14,378.05,226.85,378.69Z" style="fill: rgb(255, 255, 255); opacity: 0.3; transform-origin: 212.245px 392.686px;" class="animable"></path></g><g id="eldjzbbzssgys"><path d="M291,379.65c-11.51-7.06-25.63-9.68-41-9.67s-29.46,2.61-41,9.67c1.72,4.26,5.45,8.3,11.2,11.62,16.44,9.49,43.08,9.49,59.52,0C285.51,388,289.24,383.91,291,379.65Z" style="fill: rgb(186, 104, 200); opacity: 0.2; transform-origin: 250px 384.184px;" class="animable"></path></g></g><g id="freepik--Ring--inject-116" class="animable" style="transform-origin: 250px 359.1px;"><path d="M282.61,336.9c-8.8-5.09-20.38-7.89-32.61-7.89s-23.81,2.8-32.62,7.89c-9.8,5.66-15.21,13.54-15.21,22.18s5.41,16.52,15.22,22.19c8.8,5.08,20.38,7.88,32.61,7.88s23.81-2.8,32.61-7.88c9.81-5.67,15.22-13.55,15.22-22.19S292.42,342.56,282.61,336.9Zm-4.74,36c-15.39,8.88-40.35,8.88-55.74,0s-15.39-23.3,0-32.19,40.35-8.88,55.74,0S293.26,364,277.87,372.9Z" style="fill: rgb(186, 104, 200); transform-origin: 250px 359.08px;" id="eltm544q3d8o" class="animable"></path><g id="elcq4xgblyxac"><path d="M282.61,336.9c-8.8-5.09-20.38-7.89-32.61-7.89s-23.81,2.8-32.62,7.89c-9.8,5.66-15.21,13.54-15.21,22.18s5.41,16.52,15.22,22.19c8.8,5.08,20.38,7.88,32.61,7.88s23.81-2.8,32.61-7.88c9.81-5.67,15.22-13.55,15.22-22.19S292.42,342.56,282.61,336.9Zm-4.74,36c-15.39,8.88-40.35,8.88-55.74,0s-15.39-23.3,0-32.19,40.35-8.88,55.74,0S293.26,364,277.87,372.9Z" style="fill: rgb(255, 255, 255); opacity: 0.5; transform-origin: 250px 359.08px;" class="animable"></path></g><g id="el7o8gq9h930k"><path d="M282.61,381.27c7.12-4.11,11.91-9.39,14-15.27-1.08,2.62-4.77,9.86-16.84,15.08-15.89,6.88-39.47,7.37-58.2-1.15S202,355.86,204.86,349l0,0a20.92,20.92,0,0,0-2.65,10.12c0,8.64,5.41,16.52,15.22,22.19,8.8,5.08,20.38,7.88,32.61,7.88S273.81,386.35,282.61,381.27Z" style="fill: rgb(186, 104, 200); opacity: 0.1; transform-origin: 249.41px 369.095px;" class="animable"></path></g><g id="elz4idhjjaysb"><path d="M282.61,381.27c7.12-4.11,11.91-9.39,14-15.27-1.08,2.62-4.77,9.86-16.84,15.08-15.89,6.88-39.47,7.37-58.2-1.15S202,355.86,204.86,349l0,0a20.92,20.92,0,0,0-2.65,10.12c0,8.64,5.41,16.52,15.22,22.19,8.8,5.08,20.38,7.88,32.61,7.88S273.81,386.35,282.61,381.27Z" style="fill: rgb(186, 104, 200); opacity: 0.2; transform-origin: 249.41px 369.095px;" class="animable"></path></g><g id="elg2w4qbuf5b4"><path d="M210.9,353.93h0c1.06-4.84,4.79-9.51,11.22-13.22,15.39-8.88,40.35-8.88,55.74,0,6.27,3.62,10,8.15,11.14,12.86h0c-1.39-9.28-8.65-15.51-21.39-19.35-13-3.93-28.84-4-42.6,2.15C216.06,340.38,210.9,347.53,210.9,353.93Z" style="fill: rgb(186, 104, 200); opacity: 0.1; transform-origin: 249.95px 342.702px;" class="animable"></path></g><g id="eljrqo6duef0d"><path d="M210.9,353.93h0c1.06-4.84,4.79-9.51,11.22-13.22,15.39-8.88,40.35-8.88,55.74,0,6.27,3.62,10,8.15,11.14,12.86h0c-1.39-9.28-8.65-15.51-21.39-19.35-13-3.93-28.84-4-42.6,2.15C216.06,340.38,210.9,347.53,210.9,353.93Z" style="opacity: 0.05; transform-origin: 249.95px 342.702px;" class="animable"></path></g><g id="ellt1w7ofyhxs"><path d="M292.51,350.13c-.76-.44-2.06-.72-1.82,1.14.41,3.25.7,8.06-1.28,12.61C285.74,372.37,273.28,381,246,382c0,0,15,3.16,29.81-2.47,13.16-5,16.79-11.09,18.88-18.7C295.93,356.31,294.5,351.27,292.51,350.13Z" style="fill: rgb(255, 255, 255); opacity: 0.6; transform-origin: 270.576px 366.345px;" class="animable"></path></g></g><path d="M319.13,162.74a69.41,69.41,0,0,0-25.54,4.82,9,9,0,0,1-12.21-8.37V110.74c0-4.63-3.06-9.27-9.19-12.81-12.25-7.07-32.12-7.07-44.38,0-6.13,3.54-9.19,8.18-9.19,12.81v48.31a9,9,0,0,1-12.22,8.36,69.26,69.26,0,0,0-94.64,64.29c-.08,72.6,73.26,119.54,100.86,137.21h0a69.18,69.18,0,0,0,74.47.08h0c27.64-17.61,101.07-64.4,101.15-137A69.17,69.17,0,0,0,319.13,162.74Z" style="fill: rgb(186, 104, 200); transform-origin: 250px 236.226px;" id="elerppiqjvugk" class="animable"></path><g id="ellh415vcwxht"><path d="M319.13,162.74a69.41,69.41,0,0,0-25.54,4.82,9,9,0,0,1-12.21-8.37V110.74c0-4.63-3.06-9.27-9.19-12.81-12.25-7.07-32.12-7.07-44.38,0-6.13,3.54-9.19,8.18-9.19,12.81v48.31a9,9,0,0,1-12.22,8.36,69.26,69.26,0,0,0-94.64,64.29c-.08,72.6,73.26,119.54,100.86,137.21h0a69.18,69.18,0,0,0,74.47.08h0c27.64-17.61,101.07-64.4,101.15-137A69.17,69.17,0,0,0,319.13,162.74Z" style="fill: rgb(255, 255, 255); opacity: 0.7; transform-origin: 250px 236.226px;" class="animable"></path></g><path d="M378.21,230.09a7.74,7.74,0,0,0-.09-2h0a5.92,5.92,0,0,0-2.09-3.5c-4.41-3.67-22.61-3.18-38-3.56-32.24-.81-55.38-3.93-75-9.43a191,191,0,0,1-21.08-7.22c-3.73-1.52-7.36-3-10.94-4.53-21-8.76-39.85-16.48-61.5-17.41-14.14-.61-26.39,3.52-32.92,10.54-.13.14-.26.28-.37.42-.28.32-.56.65-.83,1a.43.43,0,0,1-.09.1,58.93,58.93,0,0,0-13.5,37.68c.1,67.13,70.2,111.74,96.58,128.53a59.2,59.2,0,0,0,63.44.07l.27-.17c26.33-16.87,96.29-61.7,96.19-128.83C378.24,231.2,378.23,230.64,378.21,230.09Z" style="fill: rgb(186, 104, 200); transform-origin: 250.04px 276.17px;" id="el89zh4rzmxrm" class="animable"></path><g id="el7878gfl8f3d"><path d="M296,351.47c10.54-8.05,22.33-19.2,27.36-28.47,3.32-6.13,4.25-16.48-1.09-21.23-10.87-9.66-36.78-4.74-78.17-10.15-78.24-10.22-93.85-41.06-99-60.22l.11-44.54a28.57,28.57,0,0,0-8.6,6.12c-.13.14-.26.28-.37.42-.28.32-.56.65-.83,1a.43.43,0,0,1-.09.1,58.93,58.93,0,0,0-13.5,37.68c.1,67.13,70.2,111.74,96.58,128.53a59.2,59.2,0,0,0,63.44.07l.27-.17C285.88,358.14,290.64,355.09,296,351.47Z" style="opacity: 0.05; transform-origin: 223.941px 278.41px;" class="animable"></path></g><g id="freepik--Bubbles--inject-116" class="animable" style="transform-origin: 235.697px 297.952px;"><path d="M225.69,318.78a6.76,6.76,0,0,0-5.68,7.31,6.76,6.76,0,0,0-8.34-4,7,7,0,0,0-4.19,9.05c2.16,6.05,9.42,8.61,12.25,9.6l1.52.54a4.21,4.21,0,0,0,4.39-1l1.12-1.16c2.1-2.15,7.46-7.66,6.71-14A7,7,0,0,0,225.69,318.78ZM248.6,342.9a4,4,0,0,0-5.36,1.17,4,4,0,0,0-2.27-5,4.13,4.13,0,0,0-5.35,2.53c-1.32,3.58,1,7.5,1.94,9l.49.82a2.47,2.47,0,0,0,2.39,1.19l.95-.09c1.77-.19,6.31-.66,8.38-3.86A4.11,4.11,0,0,0,248.6,342.9Zm-12.66-50.22.67.11a1.74,1.74,0,0,0,1.74-.74l.38-.56c.71-1,2.53-3.71,1.76-6.29a2.91,2.91,0,0,0-3.67-2,2.83,2.83,0,0,0-1.82,3.43,2.84,2.84,0,0,0-3.74-1.06,2.92,2.92,0,0,0-1.08,4.05C231.51,291.94,234.7,292.48,235.94,292.68Zm38.22,17.5a3.93,3.93,0,0,0-4.8,2.46,4,4,0,0,0-3.41-4.19,4.06,4.06,0,0,0-4.45,3.75c-.36,3.73,2.85,6.87,4.1,8.09l.67.66a2.42,2.42,0,0,0,2.57.54l.88-.33c1.64-.62,5.83-2.21,7-5.76A4.05,4.05,0,0,0,274.16,310.18Zm-87.6-22.38a4,4,0,0,0-5.37,1.17,4,4,0,0,0-2.27-5,4.12,4.12,0,0,0-5.34,2.54c-1.32,3.57,1,7.49,1.93,9l.49.82a2.49,2.49,0,0,0,2.39,1.2l1-.1c1.77-.19,6.31-.66,8.39-3.85A4.13,4.13,0,0,0,186.56,287.8ZM335,291a4,4,0,0,0-5.36,1.18,4,4,0,0,0-2.27-5,4.12,4.12,0,0,0-5.35,2.53c-1.31,3.58,1,7.5,1.94,9l.49.83a2.47,2.47,0,0,0,2.39,1.19l.95-.1c1.77-.18,6.31-.65,8.38-3.85A4.12,4.12,0,0,0,335,291Zm-24.67,2.83a7.84,7.84,0,1,0,7.84,7.84A7.84,7.84,0,0,0,310.36,293.87Zm-44.85,3a10.86,10.86,0,1,0-10.85,10.85A10.86,10.86,0,0,0,265.51,296.89ZM160.32,268.34a9.83,9.83,0,1,0,9.83,9.83A9.83,9.83,0,0,0,160.32,268.34Zm161.34,41.21a3.39,3.39,0,1,0,3.39,3.39A3.38,3.38,0,0,0,321.66,309.55ZM289,336.25a3.39,3.39,0,1,0,3.39,3.39A3.4,3.4,0,0,0,289,336.25Zm-76.59-34.53a3.4,3.4,0,1,0-3.39,3.39A3.39,3.39,0,0,0,212.43,301.72Zm-74.49-58.44a3.4,3.4,0,1,0,3.39,3.4A3.4,3.4,0,0,0,137.94,243.28Zm22.36,51.61a3.4,3.4,0,1,0,3.39,3.39A3.4,3.4,0,0,0,160.3,294.89Z" style="fill: rgb(186, 104, 200); transform-origin: 235.697px 297.952px;" id="elqp8fsyqf7e" class="animable"></path><g id="ellthtspkrmzp"><path d="M225.69,318.78a6.76,6.76,0,0,0-5.68,7.31,6.76,6.76,0,0,0-8.34-4,7,7,0,0,0-4.19,9.05c2.16,6.05,9.42,8.61,12.25,9.6l1.52.54a4.21,4.21,0,0,0,4.39-1l1.12-1.16c2.1-2.15,7.46-7.66,6.71-14A7,7,0,0,0,225.69,318.78ZM248.6,342.9a4,4,0,0,0-5.36,1.17,4,4,0,0,0-2.27-5,4.13,4.13,0,0,0-5.35,2.53c-1.32,3.58,1,7.5,1.94,9l.49.82a2.47,2.47,0,0,0,2.39,1.19l.95-.09c1.77-.19,6.31-.66,8.38-3.86A4.11,4.11,0,0,0,248.6,342.9Zm-12.66-50.22.67.11a1.74,1.74,0,0,0,1.74-.74l.38-.56c.71-1,2.53-3.71,1.76-6.29a2.91,2.91,0,0,0-3.67-2,2.83,2.83,0,0,0-1.82,3.43,2.84,2.84,0,0,0-3.74-1.06,2.92,2.92,0,0,0-1.08,4.05C231.51,291.94,234.7,292.48,235.94,292.68Zm38.22,17.5a3.93,3.93,0,0,0-4.8,2.46,4,4,0,0,0-3.41-4.19,4.06,4.06,0,0,0-4.45,3.75c-.36,3.73,2.85,6.87,4.1,8.09l.67.66a2.42,2.42,0,0,0,2.57.54l.88-.33c1.64-.62,5.83-2.21,7-5.76A4.05,4.05,0,0,0,274.16,310.18Zm-87.6-22.38a4,4,0,0,0-5.37,1.17,4,4,0,0,0-2.27-5,4.12,4.12,0,0,0-5.34,2.54c-1.32,3.57,1,7.49,1.93,9l.49.82a2.49,2.49,0,0,0,2.39,1.2l1-.1c1.77-.19,6.31-.66,8.39-3.85A4.13,4.13,0,0,0,186.56,287.8ZM335,291a4,4,0,0,0-5.36,1.18,4,4,0,0,0-2.27-5,4.12,4.12,0,0,0-5.35,2.53c-1.31,3.58,1,7.5,1.94,9l.49.83a2.47,2.47,0,0,0,2.39,1.19l.95-.1c1.77-.18,6.31-.65,8.38-3.85A4.12,4.12,0,0,0,335,291Zm-24.67,2.83a7.84,7.84,0,1,0,7.84,7.84A7.84,7.84,0,0,0,310.36,293.87Zm-44.85,3a10.86,10.86,0,1,0-10.85,10.85A10.86,10.86,0,0,0,265.51,296.89ZM160.32,268.34a9.83,9.83,0,1,0,9.83,9.83A9.83,9.83,0,0,0,160.32,268.34Zm161.34,41.21a3.39,3.39,0,1,0,3.39,3.39A3.38,3.38,0,0,0,321.66,309.55ZM289,336.25a3.39,3.39,0,1,0,3.39,3.39A3.4,3.4,0,0,0,289,336.25Zm-76.59-34.53a3.4,3.4,0,1,0-3.39,3.39A3.39,3.39,0,0,0,212.43,301.72Zm-74.49-58.44a3.4,3.4,0,1,0,3.39,3.4A3.4,3.4,0,0,0,137.94,243.28Zm22.36,51.61a3.4,3.4,0,1,0,3.39,3.39A3.4,3.4,0,0,0,160.3,294.89Z" style="fill: rgb(255, 255, 255); opacity: 0.1; transform-origin: 235.697px 297.952px;" class="animable"></path></g><g id="elgk3p06qroz"><path d="M162,271.88a3.73,3.73,0,1,0,3.72,3.72A3.72,3.72,0,0,0,162,271.88Zm-.62,24.42a1,1,0,1,0,1,1A1,1,0,0,0,161.34,296.3Zm65.86,24.19a3.7,3.7,0,1,0,3.71,3.7A3.7,3.7,0,0,0,227.2,320.49Zm-88.28-75.78a2,2,0,1,0,2,2A2,2,0,0,0,138.92,244.71Zm169,52.76a3.64,3.64,0,1,0,3.64,3.64A3.64,3.64,0,0,0,307.87,297.47Zm-60.45,46.45a1.8,1.8,0,1,0,1.8,1.8A1.8,1.8,0,0,0,247.42,343.92Zm25.89-32.69a2.36,2.36,0,1,0,2.36,2.36A2.35,2.35,0,0,0,273.31,311.23ZM259.19,291a5.05,5.05,0,1,0,5.06,5.05A5,5,0,0,0,259.19,291Z" style="fill: rgb(255, 255, 255); opacity: 0.1; transform-origin: 224.28px 296.115px;" class="animable"></path></g></g><g id="el7tfpybsa2p2"><path d="M250,360.55c-41.09,0-85.06-58.94-90.26-78.17s4.07-35,17.92-28.4V183.12c-2.69-.33-5.41-.56-8.19-.68-14.14-.61-26.39,3.52-32.92,10.54-.13.14-.26.28-.37.42-.28.32-.56.65-.83,1a.43.43,0,0,1-.09.1,58.93,58.93,0,0,0-13.5,37.68c.1,67.13,70.2,111.74,96.58,128.53a59.2,59.2,0,0,0,63.44.07l.27-.17c7.71-4.94,19.16-12.28,31.5-21.87C302.73,346.61,279.46,360.55,250,360.55Z" style="opacity: 0.15; transform-origin: 217.655px 276.17px;" class="animable"></path></g><path d="M169.47,182.44c-29.74-1.28-52.19,20.35-29.63,43.86,25.71,26.8,68.46,46.37,137.31,45.6,51.16-.58,80.63-14.86,94.84-30,4-4.25,9.32-13,4-17.34-4.41-3.67-22.61-3.18-38-3.56-44.41-1.11-71.54-6.62-96.12-16.65C216.29,193.91,194.8,183.53,169.47,182.44Z" style="fill: rgb(186, 104, 200); transform-origin: 254.437px 227.154px;" id="el3w86n70kpu9" class="animable"></path><g id="elgpor6asdacd"><path d="M169.47,182.44c-29.74-1.28-52.19,20.35-29.63,43.86,25.71,26.8,68.46,46.37,137.31,45.6,51.16-.58,80.63-14.86,94.84-30,4-4.25,9.32-13,4-17.34-4.41-3.67-22.61-3.18-38-3.56-44.41-1.11-71.54-6.62-96.12-16.65C216.29,193.91,194.8,183.53,169.47,182.44Z" style="fill: rgb(255, 255, 255); opacity: 0.15; transform-origin: 254.437px 227.154px;" class="animable"></path></g><g id="el0gpkifgfes5r"><path d="M292.11,232.54c7.76-.52,15.79-.38,23.44-2.31s13.39-4,15.78-9.41l-4.13-.17a25.29,25.29,0,0,1-7.69,5.31c-13.88,5.12-29.55,3.61-44,5-3.56.36-10.06,1.63-11.56,5.4-1.36,3.4-.36,7.61-2.13,11.11-2.55,5-9.47,6.2-14.45,6.48-5.8.33-12-1.5-18.6-3.44-2.57-.75-8.43-2.43-10,.53-1.26,2.42,1.5,5.22.49,7.65-.72,1.75-3.41,2.23-7.18.55-15.92-7.47-14.66-18,3.64-15.76,8.35,1.25,15.57,4.64,24.19,4.63,5.42,0,14.15,1.13,15.39-5.62.74-4-2.69-10.25,0-13.89,3.24-4.44,14.6-2.32,19.13-2.32,8.92,0,18,.44,26.84-.42,5-.48,12.68-1.87,16.65-5.75-5.65-.37-11-.82-16.06-1.37-14.73,2.38-30,.19-44.74-1-4.88-.63-13.53-1.77-17.71,1.51-2.25,1.76-1.65,3.66-3,5.94-8.07,9.75-40-10.51-54.94,1.57-19.69,13.77-41.51-4.75-50.18-23.6-.76,6.26-.36,13,8.59,23.13,23.54,26.55,62.29,43.09,122.23,45.38-11.3-1.34-25.81-2.78-31.52-5.5-6.63-3.17-8.9-6.38-9-12.08-.31-5,10.12-.14,15.24.89a48.05,48.05,0,0,0,12.8,1.28c22.25-2.37,11.52-16.26,20-21.34C276.17,232,285.05,232.7,292.11,232.54Z" style="fill: rgb(255, 255, 255); opacity: 0.2; transform-origin: 231.181px 237.415px;" class="animable"></path></g><g id="elmcf0mfu1ys"><path d="M200.65,216.8c2.88,1.68,6.54,1.64,9.73,2.28,2.69.55,5.38,1,8,1.79,2.33.71,5.29,2.3,7.73,1.19,2.21-1,1.32-3,.13-4.6-4.67-6.3-16.89-10.75-24.16-6.38C200.09,212.28,197.86,215.17,200.65,216.8Z" style="fill: rgb(255, 255, 255); opacity: 0.2; transform-origin: 213.402px 215.886px;" class="animable"></path></g><g id="el779kpnvm0z7"><path d="M293.9,237.35c-5.25.42-8.23.08-12.28.53-2.53.29-4.59,2.23-2.73,4.45,1.43,1.69,3.44,2.48,5.87,3.4a48.07,48.07,0,0,0,12.52,2.12c4,.09,8.32,0,12.15-1.29,2.36-.8,6.35-2.58,6.34-5.52,0-3.59-3.7-5.12-6.72-5.09C304,236,298.91,237,293.9,237.35Z" style="fill: rgb(255, 255, 255); opacity: 0.2; transform-origin: 296.971px 241.912px;" class="animable"></path></g><path d="M169.47,182.44a58.3,58.3,0,0,0-10.06.73,48.8,48.8,0,0,0-9.69,2.52,35.42,35.42,0,0,0-8.72,4.69,23.82,23.82,0,0,0-6.53,7.16,17.81,17.81,0,0,0-2.43,9.12,21.84,21.84,0,0,0,2.3,9.22c2.78,5.85,7.49,10.65,12.33,15.2a122.78,122.78,0,0,0,33.24,21.73,176.75,176.75,0,0,0,38.08,12,262,262,0,0,0,39.82,4.85,306.22,306.22,0,0,0,40.19-.43c6.67-.54,13.31-1.44,19.89-2.64a149.24,149.24,0,0,0,19.45-4.91,106,106,0,0,0,18.46-7.86,77.55,77.55,0,0,0,8.49-5.4,64.43,64.43,0,0,0,7.7-6.5,65.51,65.51,0,0,1-7.33,7,77.56,77.56,0,0,1-8.32,5.83,107.06,107.06,0,0,1-18.35,8.8,165.63,165.63,0,0,1-39.7,8.81,285.91,285.91,0,0,1-40.65,1.11,261.18,261.18,0,0,1-40.45-4.74,177,177,0,0,1-38.85-12.49,122.06,122.06,0,0,1-33.81-22.91,98.16,98.16,0,0,1-7-7.52A38.53,38.53,0,0,1,132,217a24.25,24.25,0,0,1-2.2-10.33,19.78,19.78,0,0,1,3-10.11,25.52,25.52,0,0,1,7.33-7.38,36.79,36.79,0,0,1,9.24-4.45A52,52,0,0,1,169.47,182.44Z" style="fill: rgb(186, 104, 200); transform-origin: 250.894px 228.005px;" id="el761aaw1fkkg" class="animable"></path><g id="elltameq4l27l"><path d="M169.47,182.44a58.3,58.3,0,0,0-10.06.73,48.8,48.8,0,0,0-9.69,2.52,35.42,35.42,0,0,0-8.72,4.69,23.82,23.82,0,0,0-6.53,7.16,17.81,17.81,0,0,0-2.43,9.12,21.84,21.84,0,0,0,2.3,9.22c2.78,5.85,7.49,10.65,12.33,15.2a122.78,122.78,0,0,0,33.24,21.73,176.75,176.75,0,0,0,38.08,12,262,262,0,0,0,39.82,4.85,306.22,306.22,0,0,0,40.19-.43c6.67-.54,13.31-1.44,19.89-2.64a149.24,149.24,0,0,0,19.45-4.91,106,106,0,0,0,18.46-7.86,77.55,77.55,0,0,0,8.49-5.4,64.43,64.43,0,0,0,7.7-6.5,65.51,65.51,0,0,1-7.33,7,77.56,77.56,0,0,1-8.32,5.83,107.06,107.06,0,0,1-18.35,8.8,165.63,165.63,0,0,1-39.7,8.81,285.91,285.91,0,0,1-40.65,1.11,261.18,261.18,0,0,1-40.45-4.74,177,177,0,0,1-38.85-12.49,122.06,122.06,0,0,1-33.81-22.91,98.16,98.16,0,0,1-7-7.52A38.53,38.53,0,0,1,132,217a24.25,24.25,0,0,1-2.2-10.33,19.78,19.78,0,0,1,3-10.11,25.52,25.52,0,0,1,7.33-7.38,36.79,36.79,0,0,1,9.24-4.45A52,52,0,0,1,169.47,182.44Z" style="fill: rgb(255, 255, 255); opacity: 0.6; transform-origin: 250.894px 228.005px;" class="animable"></path></g><g id="elxkeb05tha4"><path d="M319,167.68a64.68,64.68,0,0,0-23.47,4.43,13.42,13.42,0,0,1-18.31-12.51V101.72a24.09,24.09,0,0,0-5-3.79c-.91-.52-1.88-1-2.87-1.45v64.14c0,14.56,14.64,24.74,28.19,19.4,13.18-5.18,29.9-7,47.79,3,28.95,16.14,37.35,51.17,23,89.23-13.27,35.25-55.48,69.76-83.58,92.54,27-17.28,98.6-63.18,98.49-133A64.32,64.32,0,0,0,319,167.68Z" style="fill: rgb(255, 255, 255); opacity: 0.4; transform-origin: 326.295px 230.635px;" class="animable"></path></g><g id="el465xzci4ihz"><path d="M322.77,184c-12.87-1.4-28.64,10.56-15,22,17.15,14.48,37,19.87,42.46,44,1.58,7,5.13,10.38,8.61,10.89,3.91.58,8-1.52,9.92-7.13C379.61,223.59,353.88,187,322.77,184Z" style="fill: rgb(255, 255, 255); opacity: 0.4; transform-origin: 336.902px 222.436px;" class="animable"></path></g><g id="elyziloi1zbt"><circle cx="354.24" cy="274.05" r="8.33" style="fill: rgb(255, 255, 255); opacity: 0.4; transform-origin: 354.24px 274.05px; transform: rotate(-80.78deg);" class="animable"></circle></g><g id="el4gkchya7vpb"><path d="M261.09,93.81a43.5,43.5,0,0,1,4.52,1.24v67.46c0,16.77,17.08,27.78,32.57,21.35a54.47,54.47,0,0,1,20.8-4.18h0a45.7,45.7,0,0,0-19,8.16c-16,12.15-38.92,1.12-38.92-19Z" style="fill: rgb(255, 255, 255); opacity: 0.4; transform-origin: 290.02px 143.358px;" class="animable"></path></g><g id="ellbhqr5li8zg"><path d="M261.09,132.77c1.55-.32,3.06-.7,4.52-1.15,1.28-.39,2.52-.83,3.71-1.32a36.68,36.68,0,0,0,4.22-2.06,27.32,27.32,0,0,0,3.64-2.51,18.68,18.68,0,0,0,4.2-4.73V110.74a10.71,10.71,0,0,0-.54-3.34,19.31,19.31,0,0,0-3.66-3.84,26.11,26.11,0,0,0-3.64-2.5A35.11,35.11,0,0,0,269.32,99c-1.2-.5-2.44-.94-3.71-1.33-1.47-.45-3-.83-4.52-1.14-10.57-2.16-22.66-1.12-31.8,3.08V97.16l-.34.18-.59.31-.55.28-.73.45a25,25,0,0,0-3.16,2.3l-.41.37c-.39.35-.75.71-1.1,1.07s-.61.65-.88,1h0c-.2.26-.4.51-.57.77l-.33.49-.31.5c-.11.19-.22.38-.32.57a2.1,2.1,0,0,0-.13.26c-.08.15-.15.31-.23.47s-.13.3-.19.46a4.34,4.34,0,0,0-.2.5l-.12.38a2.76,2.76,0,0,0-.08.27,8,8,0,0,0-.2.81s0,0,0,.06,0,.11,0,.17-.05.32-.07.48a1.6,1.6,0,0,0,0,.23v.06c0,.13,0,.26,0,.38a6.62,6.62,0,0,0,0,.77v48.31a9,9,0,0,1-12.22,8.36,69.26,69.26,0,0,0-94.64,64.29c-.05,47.52,31.35,84,60.79,108.56-20.55-20-40.14-55.8-42.49-90-2.11-30.76,14.27-61.38,45.13-67.29,19.2-3.68,33.29-1.55,43.36,3.66A9.68,9.68,0,0,0,232.7,178V131A55.47,55.47,0,0,0,261.09,132.77Z" style="fill: rgb(186, 104, 200); opacity: 0.2; transform-origin: 196.65px 217.852px;" class="animable"></path></g><g id="elhmwzv7vvxco"><path d="M162.1,173c21-5.56,36-1.93,48.82,2.88a9.64,9.64,0,0,0,13-9.06V100.68l-.41.37c-.39.35-.75.71-1.1,1.07a20.76,20.76,0,0,0-1.45,1.76l-.33.49-.31.5c-.11.19-.22.38-.32.57a2.1,2.1,0,0,0-.13.26c-.08.15-.15.31-.23.47s-.13.3-.19.46-.09.23-.13.34q-.15.41-.27.81a8,8,0,0,0-.2.81s0,0,0,.06,0,.11,0,.17-.05.32-.07.48a1.6,1.6,0,0,0,0,.23v.06c0,.13,0,.26,0,.38a6.62,6.62,0,0,0,0,.77v36.92h0v11.39a9,9,0,0,1-12.22,8.36,69.26,69.26,0,0,0-94.64,64.29A106.53,106.53,0,0,0,114,253.45C106.12,213.9,135,180.21,162.1,173Z" style="fill: rgb(186, 104, 200); opacity: 0.3; transform-origin: 167.919px 177.065px;" class="animable"></path></g><path d="M285.93,91.7c0-5.3-3.51-10.61-10.52-14.66-14-8.1-36.78-8.1-50.82,0-7,4-10.52,9.36-10.52,14.66h0v15.52h0c0,5.31,3.51,10.62,10.52,14.67,14,8.1,36.79,8.1,50.82,0,7-4,10.52-9.36,10.52-14.67h0V91.7Z" style="fill: rgb(186, 104, 200); transform-origin: 250px 99.465px;" id="el7901vskep2a" class="animable"></path><g id="el8nyt3n0pdu2"><path d="M285.93,91.7c0-5.3-3.51-10.61-10.52-14.66-14-8.1-36.78-8.1-50.82,0-7,4-10.52,9.36-10.52,14.66h0v15.52h0c0,5.31,3.51,10.62,10.52,14.67,14,8.1,36.79,8.1,50.82,0,7-4,10.52-9.36,10.52-14.67h0V91.7Z" style="fill: rgb(255, 255, 255); opacity: 0.5; transform-origin: 250px 99.465px;" class="animable"></path></g><g id="elgtbbi09xx4o"><path d="M277.75,120.39c-10.54,4.83-30.18,7.29-40.66,2.87-11.09-4.67-16.6-9.41-16.6-20.1V79.9c-4.26,3.54-6.42,7.67-6.42,11.8h0v15.52h0c0,5.31,3.51,10.62,10.52,14.67,14,8.1,36.79,8.1,50.82,0Q276.65,121.17,277.75,120.39Z" style="fill: rgb(186, 104, 200); opacity: 0.3; transform-origin: 245.91px 103.933px;" class="animable"></path></g><path d="M224.59,106.37c14,8.11,36.79,8.11,50.82,0s14-21.23,0-29.33-36.78-8.1-50.82,0S210.56,98.27,224.59,106.37Z" style="fill: rgb(186, 104, 200); transform-origin: 249.993px 91.7088px;" id="el8mq63aszalq" class="animable"></path><g id="elyvxzl7aor5"><path d="M224.59,106.37c14,8.11,36.79,8.11,50.82,0s14-21.23,0-29.33-36.78-8.1-50.82,0S210.56,98.27,224.59,106.37Z" style="fill: rgb(255, 255, 255); opacity: 0.7; transform-origin: 249.993px 91.7088px;" class="animable"></path></g><g id="el68i3qsrph5x"><path d="M234.3,79.62c-11.34,3-15.06,11.55-10.1,18.23s14.33,12.1,31.21,9.88,20.38-11.28,20.38-13.44Z" style="fill: rgb(255, 255, 255); opacity: 0.7; transform-origin: 248.919px 93.9277px;" class="animable"></path></g><path d="M231.49,102.39c10.22,5.9,26.8,5.9,37,0s10.22-15.47,0-21.37-26.8-5.9-37,0S221.27,96.49,231.49,102.39Z" style="fill: rgb(186, 104, 200); transform-origin: 249.99px 91.705px;" id="eleqkbte6xp3j" class="animable"></path><g id="elt858awxjhz"><path d="M231.49,102.39c10.22,5.9,26.8,5.9,37,0s10.22-15.47,0-21.37-26.8-5.9-37,0S221.27,96.49,231.49,102.39Z" style="fill: rgb(255, 255, 255); opacity: 0.4; transform-origin: 249.99px 91.705px;" class="animable"></path></g><g id="elxn78awqvit"><path d="M231.49,99.52a21.29,21.29,0,0,0-2.16,1.43,19.77,19.77,0,0,0,2.16,1.44c10.22,5.9,26.8,5.9,37,0a20.94,20.94,0,0,0,2.17-1.44,22.65,22.65,0,0,0-2.17-1.43C258.29,93.61,241.71,93.61,231.49,99.52Z" style="fill: rgb(255, 255, 255); opacity: 0.4; transform-origin: 249.995px 100.951px;" class="animable"></path></g></g><g id="freepik--Cork--inject-116" class="animable" style="transform-origin: 250.003px 74.8831px;"><path d="M275.8,94.24a8.77,8.77,0,0,0,.3-1.44c1.32-6.35,4.44-23.8,4.44-32.16H219.47c0,8.36,3.11,25.81,4.43,32.16a9.11,9.11,0,0,0,.3,1.45v0h0c.89,3,3.31,5.81,7.28,8.1,10.22,5.9,26.8,5.9,37,0,4-2.29,6.39-5.13,7.28-8.1h0Z" style="fill: rgb(55, 71, 79); transform-origin: 250.005px 83.7075px;" id="el4ea8f27hikt" class="animable"></path><path d="M228.41,73.1c11.92,6.89,31.26,6.89,43.18,0s11.93-18,0-24.93-31.26-6.88-43.18,0S216.48,66.22,228.41,73.1Z" style="fill: rgb(69, 90, 100); transform-origin: 250px 60.6294px;" id="el8844lhrbenq" class="animable"></path><path d="M233.65,66.49h0a3.93,3.93,0,0,1-.52.35,8.2,8.2,0,0,1-7.41,0c-1.27-.73-1.75-1.75-1.44-2.7h0a3,3,0,0,1,1.43-1.58,8.2,8.2,0,0,1,7.41,0C235,63.63,235.16,65.31,233.65,66.49Z" style="fill: rgb(38, 50, 56); transform-origin: 229.429px 64.7px;" id="eltw6ww0i7mg" class="animable"></path><path d="M233.65,66.49h0a3.93,3.93,0,0,1-.52.35,8.2,8.2,0,0,1-7.41,0c-1.27-.73-1.75-1.75-1.44-2.7h0a5.23,5.23,0,0,1,.52-.35,8.18,8.18,0,0,1,7.4,0C233.49,64.52,234,65.54,233.65,66.49Z" style="fill: rgb(55, 71, 79); transform-origin: 228.973px 65.3151px;" id="el42u6mmiegzx" class="animable"></path><path d="M254,68.18h0a2.65,2.65,0,0,1-.37.25,5.87,5.87,0,0,1-5.29,0c-.91-.52-1.25-1.25-1-1.93h0a2.08,2.08,0,0,1,1-1.12,5.81,5.81,0,0,1,5.29,0C254.9,66.14,255,67.34,254,68.18Z" style="fill: rgb(38, 50, 56); transform-origin: 250.968px 66.9014px;" id="elbg4axckbna5" class="animable"></path><path d="M254,68.18h0a2.65,2.65,0,0,1-.37.25,5.87,5.87,0,0,1-5.29,0c-.91-.52-1.25-1.25-1-1.93h0a2.65,2.65,0,0,1,.37-.25,5.87,5.87,0,0,1,5.29,0C253.83,66.77,254.17,67.5,254,68.18Z" style="fill: rgb(55, 71, 79); transform-origin: 250.651px 67.34px;" id="el5mjcbzih30r" class="animable"></path><path d="M241.78,73.5h0l-.27.18a4.32,4.32,0,0,1-3.9,0c-.67-.39-.92-.92-.76-1.42h0a1.55,1.55,0,0,1,.76-.82,4.26,4.26,0,0,1,3.9,0C242.48,72,242.57,72.87,241.78,73.5Z" style="fill: rgb(38, 50, 56); transform-origin: 239.558px 72.5563px;" id="elxelv01xpfu" class="animable"></path><path d="M241.78,73.5h0l-.27.18a4.32,4.32,0,0,1-3.9,0c-.67-.39-.92-.92-.76-1.42h0l.28-.18a4.32,4.32,0,0,1,3.9,0C241.69,72.46,241.94,73,241.78,73.5Z" style="fill: rgb(55, 71, 79); transform-origin: 239.315px 72.88px;" id="eltpri4ec5iq" class="animable"></path><path d="M234.86,54.83h0a3.13,3.13,0,0,1-.4.28,6.46,6.46,0,0,1-5.81,0c-1-.58-1.37-1.38-1.13-2.12h0a2.28,2.28,0,0,1,1.12-1.23,6.4,6.4,0,0,1,5.81,0C235.9,52.59,236,53.91,234.86,54.83Z" style="fill: rgb(38, 50, 56); transform-origin: 231.543px 53.4314px;" id="el13ykgeipud1q" class="animable"></path><path d="M234.86,54.83h0a3.13,3.13,0,0,1-.4.28,6.46,6.46,0,0,1-5.81,0c-1-.58-1.37-1.38-1.13-2.12h0a3.27,3.27,0,0,1,.41-.28,6.44,6.44,0,0,1,5.8,0C234.73,53.29,235.11,54.09,234.86,54.83Z" style="fill: rgb(55, 71, 79); transform-origin: 231.192px 53.9101px;" id="elfntganda82p" class="animable"></path><path d="M234.29,59.76h0l-.15.1a2.39,2.39,0,0,1-2.15,0c-.37-.21-.51-.51-.42-.78h0a.91.91,0,0,1,.42-.46,2.39,2.39,0,0,1,2.15,0C234.68,58.93,234.73,59.42,234.29,59.76Z" style="fill: rgb(38, 50, 56); transform-origin: 233.065px 59.24px;" id="eliuv03humiib" class="animable"></path><path d="M234.29,59.76h0l-.15.1a2.39,2.39,0,0,1-2.15,0c-.37-.21-.51-.51-.42-.78h0l.16-.1a2.31,2.31,0,0,1,2.14,0C234.24,59.19,234.38,59.49,234.29,59.76Z" style="fill: rgb(55, 71, 79); transform-origin: 232.93px 59.4163px;" id="elakjy6z21twc" class="animable"></path><path d="M252,74.11h0l-.17.12a2.67,2.67,0,0,1-2.4,0c-.41-.24-.57-.57-.47-.88h0a.93.93,0,0,1,.46-.51,2.67,2.67,0,0,1,2.4,0C252.4,73.19,252.46,73.73,252,74.11Z" style="fill: rgb(38, 50, 56); transform-origin: 250.618px 73.535px;" id="elbitg2ngn938" class="animable"></path><path d="M252,74.11h0l-.17.12a2.67,2.67,0,0,1-2.4,0c-.41-.24-.57-.57-.47-.88h0a.71.71,0,0,1,.17-.11,2.59,2.59,0,0,1,2.39,0C251.91,73.47,252.07,73.8,252,74.11Z" style="fill: rgb(55, 71, 79); transform-origin: 250.474px 73.7314px;" id="elpox0b8cqb2p" class="animable"></path><path d="M242.62,65.91h0l-.16.11a2.67,2.67,0,0,1-2.4,0c-.41-.24-.57-.57-.47-.88h0a1,1,0,0,1,.47-.51,2.67,2.67,0,0,1,2.4,0C243.05,65,243.1,65.52,242.62,65.91Z" style="fill: rgb(38, 50, 56); transform-origin: 241.253px 65.325px;" id="elozqfmv3jzc" class="animable"></path><path d="M242.62,65.91h0l-.16.11a2.67,2.67,0,0,1-2.4,0c-.41-.24-.57-.57-.47-.88h0l.17-.11a2.67,2.67,0,0,1,2.4,0C242.56,65.27,242.72,65.6,242.62,65.91Z" style="fill: rgb(55, 71, 79); transform-origin: 241.105px 65.525px;" id="elxole2ca6ypj" class="animable"></path><path d="M225.56,59.3h0l-.17.11a2.61,2.61,0,0,1-2.4,0c-.41-.24-.56-.57-.46-.87h0A.93.93,0,0,1,223,58a2.67,2.67,0,0,1,2.4,0C226,58.37,226.05,58.92,225.56,59.3Z" style="fill: rgb(38, 50, 56); transform-origin: 224.196px 58.7087px;" id="elgiqp6n78rln" class="animable"></path><path d="M225.56,59.3h0l-.17.11a2.61,2.61,0,0,1-2.4,0c-.41-.24-.56-.57-.46-.87h0l.17-.12a2.65,2.65,0,0,1,2.39,0C225.51,58.66,225.66,59,225.56,59.3Z" style="fill: rgb(55, 71, 79); transform-origin: 224.045px 58.9187px;" id="eluixtejhzkg" class="animable"></path><path d="M225.19,74h0a3,3,0,0,1,.4.2,5.84,5.84,0,0,1,2.65,4.58c0,1-.46,1.71-1.16,1.86h0a2.06,2.06,0,0,1-1.49-.32A5.84,5.84,0,0,1,223,75.73C222.94,74.2,223.92,73.5,225.19,74Z" style="fill: rgb(69, 90, 100); transform-origin: 225.619px 77.2545px;" id="eldqofg2ra56" class="animable"></path><path d="M225.19,74h0a3,3,0,0,1,.4.2,5.84,5.84,0,0,1,2.65,4.58c0,1-.46,1.71-1.16,1.86h0c-.13,0-.27-.12-.41-.19A5.86,5.86,0,0,1,224,75.86C224,74.81,224.49,74.15,225.19,74Z" style="fill: rgb(38, 50, 56); transform-origin: 226.12px 77.32px;" id="elwh5tvcp1o6" class="animable"></path><path d="M235.17,86.79h0l.3.14a4.34,4.34,0,0,1,1.95,3.38c0,.78-.34,1.26-.86,1.37h0a1.5,1.5,0,0,1-1.09-.24,4.28,4.28,0,0,1-1.95-3.38C233.51,86.93,234.23,86.41,235.17,86.79Z" style="fill: rgb(69, 90, 100); transform-origin: 235.47px 89.1835px;" id="el4c3fhllhat5" class="animable"></path><path d="M235.17,86.79h0l.3.14a4.34,4.34,0,0,1,1.95,3.38c0,.78-.34,1.26-.86,1.37h0l-.29-.15a4.3,4.3,0,0,1-2-3.37C234.31,87.38,234.65,86.89,235.17,86.79Z" style="fill: rgb(38, 50, 56); transform-origin: 235.845px 89.235px;" id="elvzgexqnzef" class="animable"></path><path d="M243.32,94h0a2.19,2.19,0,0,1,.33.12,3.59,3.59,0,0,1,1.95,3.38A1.61,1.61,0,0,1,244.47,99h0a1.85,1.85,0,0,1-1.26-.15,3.61,3.61,0,0,1-2-3.38A1.56,1.56,0,0,1,243.32,94Z" style="fill: rgb(69, 90, 100); transform-origin: 243.406px 96.4746px;" id="elnozlwlivjih" class="animable"></path><path d="M243.65,94.1a2.19,2.19,0,0,0-.33-.12h0l-.17,0A1.61,1.61,0,0,0,242,95.48a3.61,3.61,0,0,0,1.95,3.38,2.07,2.07,0,0,0,.5.16h.06a1.61,1.61,0,0,0,1.13-1.53A3.59,3.59,0,0,0,243.65,94.1Z" style="fill: rgb(38, 50, 56); transform-origin: 243.82px 96.5px;" id="elcjpihmmgl2r" class="animable"></path><path d="M248.73,101.54h0a1.41,1.41,0,0,1,.22.06,1.73,1.73,0,0,1,1.13,2,1.29,1.29,0,0,1-.88,1h0a1.3,1.3,0,0,1-.85,0,1.73,1.73,0,0,1-1.13-2A1.3,1.3,0,0,1,248.73,101.54Z" style="fill: rgb(69, 90, 100); transform-origin: 248.65px 103.096px;" id="eltig7u80tg9h" class="animable"></path><path d="M249,101.6l-.22-.06h0a1.29,1.29,0,0,0-.48,0,1.3,1.3,0,0,0-.67.91,1.73,1.73,0,0,0,1.12,2,1,1,0,0,0,1.38-.86A1.74,1.74,0,0,0,249,101.6Z" style="fill: rgb(38, 50, 56); transform-origin: 248.878px 103.022px;" id="el1f60w82qrvm" class="animable"></path><path d="M228.33,90.84h0a3,3,0,0,1,.44.22,6.44,6.44,0,0,1,2.91,5c0,1.15-.51,1.88-1.27,2h0a2.33,2.33,0,0,1-1.63-.36,6.43,6.43,0,0,1-2.9-5C225.87,91.05,226.94,90.28,228.33,90.84Z" style="fill: rgb(69, 90, 100); transform-origin: 228.78px 94.3723px;" id="elb9azjzq8xe" class="animable"></path><path d="M228.33,90.84h0a3,3,0,0,1,.44.22,6.44,6.44,0,0,1,2.91,5c0,1.15-.51,1.88-1.27,2h0a3.61,3.61,0,0,1-.44-.22,6.42,6.42,0,0,1-2.9-5C227.06,91.72,227.56,91,228.33,90.84Z" style="fill: rgb(38, 50, 56); transform-origin: 229.375px 94.45px;" id="elwociu94d9sn" class="animable"></path><path d="M226.26,84.77h0l.18.08a2.68,2.68,0,0,1,1.2,2.08c0,.48-.21.78-.52.84h0a.93.93,0,0,1-.67-.15,2.65,2.65,0,0,1-1.2-2.07C225.24,84.86,225.68,84.54,226.26,84.77Z" style="fill: rgb(69, 90, 100); transform-origin: 226.445px 86.2388px;" id="elgklnfh0x27" class="animable"></path><path d="M226.26,84.77h0l.18.08a2.68,2.68,0,0,1,1.2,2.08c0,.48-.21.78-.52.84h0a.76.76,0,0,1-.18-.09,2.65,2.65,0,0,1-1.2-2.07C225.73,85.14,225.94,84.84,226.26,84.77Z" style="fill: rgb(38, 50, 56); transform-origin: 226.69px 86.27px;" id="eld7z7pbsa5sa" class="animable"></path><path d="M232.48,78.14h0l.18.09a2.65,2.65,0,0,1,1.2,2.08c0,.47-.21.77-.53.84h0a.93.93,0,0,1-.67-.15,2.62,2.62,0,0,1-1.2-2.08C231.46,78.23,231.9,77.91,232.48,78.14Z" style="fill: rgb(69, 90, 100); transform-origin: 232.66px 79.6138px;" id="el4pu5nxe7bcl" class="animable"></path><path d="M232.48,78.14h0l.18.09a2.65,2.65,0,0,1,1.2,2.08c0,.47-.21.77-.53.84h0l-.18-.09A2.65,2.65,0,0,1,232,79C232,78.51,232.16,78.21,232.48,78.14Z" style="fill: rgb(38, 50, 56); transform-origin: 232.93px 79.645px;" id="elyuehi2ngx2e" class="animable"></path><path d="M236.18,98.23h0a.76.76,0,0,1,.18.09,2.65,2.65,0,0,1,1.2,2.08c0,.47-.21.77-.53.84h0a1,1,0,0,1-.67-.15,2.68,2.68,0,0,1-1.2-2.08C235.16,98.32,235.6,98,236.18,98.23Z" style="fill: rgb(69, 90, 100); transform-origin: 236.36px 99.7023px;" id="el1o9wvno5dza" class="animable"></path><path d="M236.18,98.23h0a.76.76,0,0,1,.18.09,2.65,2.65,0,0,1,1.2,2.08c0,.47-.21.77-.53.84h0l-.18-.09a2.68,2.68,0,0,1-1.2-2.08C235.65,98.59,235.86,98.29,236.18,98.23Z" style="fill: rgb(38, 50, 56); transform-origin: 236.605px 99.735px;" id="elyr6l3jcnjo" class="animable"></path></g><g id="freepik--Labell--inject-116" class="animable" style="transform-origin: 298.007px 156.29px;"><path d="M269.53,158.52A62.23,62.23,0,0,1,249.87,155c-14.51,5-29.67,4.72-34.1-1.07a1.5,1.5,0,1,1,2.38-1.82c2.67,3.48,13.85,5,27.26,1.17l-.39-.17c-18.67-8.12-29.16-22-29.56-31A1.5,1.5,0,0,1,218,121c14.32,14.29,46.53,17.09,63.7,0a1.5,1.5,0,0,1,2.56,1.13c-.4,9-10.9,22.9-29.56,31l-.4.17c13.42,3.86,24.6,2.31,27.27-1.17a1.5,1.5,0,1,1,2.38,1.82C281.61,157,276.24,158.52,269.53,158.52Zm-50.11-32.38c2.76,7.28,11.44,17.54,26.79,24.21,1.23.53,2.45,1,3.66,1.46,1.21-.44,2.43-.93,3.65-1.46,15.33-6.66,24-16.9,26.78-24.17-8.14,6.32-19.16,9.78-31,9.61C238,135.63,227.19,132.08,219.42,126.14Z" style="fill: rgb(55, 71, 79); transform-origin: 249.86px 139.543px;" id="elkf9p90a42hq" class="animable"></path><g id="freepik--Label--inject-116" class="animable" style="transform-origin: 337.85px 156.29px;"><g id="freepik--label--inject-116" class="animable" style="transform-origin: 337.85px 156.29px;"><path d="M380.6,158.18l-57-46.6-26.88,5.64-1.62,5.22,3.85,31.92L356,201l2.56-1.86,3.4-6.3-1.65-1.89,2.85-.32Zm-73.54-30.5a2.39,2.39,0,0,1,.45-.64,3.27,3.27,0,0,1,.35-.3s0,0,0,0,0,0,0,0a3,3,0,0,1,.38-.23,3.62,3.62,0,0,1,1.73-.34A7.66,7.66,0,0,1,314.4,128c2.88,2.35,4.27,6,3.1,8.2-.92,1.68-3.1,2-5.39.9h0a5.15,5.15,0,0,1-.7-.36,5.89,5.89,0,0,1-.72-.47,6.25,6.25,0,0,1-.54-.4C307.26,133.51,305.88,129.84,307.06,127.68Z" style="fill: rgb(55, 71, 79); transform-origin: 337.85px 156.29px;" id="ele32ala5azff" class="animable"></path><path d="M317.5,136.22a2.77,2.77,0,0,1-1.6,1.33c.77-2.2-.62-5.54-3.29-7.74a7.78,7.78,0,0,0-4.4-1.88,3.91,3.91,0,0,0-1.35.19,1.75,1.75,0,0,1,.2-.44,2.39,2.39,0,0,1,.45-.64,2.52,2.52,0,0,1,.35-.3s0,0,0,0a4.23,4.23,0,0,1,.4-.24,3.62,3.62,0,0,1,1.73-.34A7.66,7.66,0,0,1,314.4,128C317.28,130.37,318.67,134.05,317.5,136.22Z" style="fill: rgb(55, 71, 79); transform-origin: 312.387px 131.853px;" id="el96vjlbajuwk" class="animable"></path><path d="M380.6,158.18l-57-46.6-26.88,5.64,4.79,35.28,57,46.59,3.4-6.3-1.65-1.89,2.85-.32Zm-63.1-22c-.92,1.68-3.1,2-5.39.9h0a5.15,5.15,0,0,1-.7-.36,5.89,5.89,0,0,1-.72-.47,6.25,6.25,0,0,1-.54-.4c-2.89-2.37-4.27-6-3.09-8.2a2.39,2.39,0,0,1,.45-.64,2.52,2.52,0,0,1,.35-.3s0,0,0,0,0,0,0,0a3,3,0,0,1,.38-.23,3.62,3.62,0,0,1,1.73-.34A7.66,7.66,0,0,1,314.4,128C317.28,130.37,318.67,134.05,317.5,136.22Z" style="fill: rgb(69, 90, 100); transform-origin: 338.66px 155.335px;" id="elfk9z15mi5o" class="animable"></path><polygon points="301.49 152.5 358.51 199.09 355.96 200.95 298.94 154.36 301.49 152.5" style="fill: rgb(38, 50, 56); transform-origin: 328.725px 176.725px;" id="elh3sb6h69p86" class="animable"></polygon><polygon points="361.91 192.79 356.1 186.14 363.1 190.58 360.26 190.91 361.91 192.79" style="fill: rgb(38, 50, 56); transform-origin: 359.6px 189.465px;" id="el0idav84bbpzr" class="animable"></polygon></g><g id="freepik--Heart--inject-116" class="animable" style="transform-origin: 332.427px 147.128px;"><path d="M344.56,158c-15.08,6.26-24.84-.68-24.33-5.9s5.85-7.65,11.42-4.65c-4.22-5-3.65-11.32.74-13.37s13.26,6.23,12.16,23.93Z" style="fill: rgb(186, 104, 200); transform-origin: 332.427px 147.128px;" id="el7wb4u1pgtyw" class="animable"></path><g id="elw36i4v38zw8"><path d="M344.56,158c-15.08,6.26-24.84-.68-24.33-5.9s5.85-7.65,11.42-4.65c-4.22-5-3.65-11.32.74-13.37s13.26,6.23,12.16,23.93Z" style="fill: rgb(255, 255, 255); opacity: 0.3; transform-origin: 332.427px 147.128px;" class="animable"></path></g></g><g id="freepik--Text--inject-116" class="animable" style="transform-origin: 354.132px 166.04px;"><path d="M351.36,179.71a1.42,1.42,0,0,1-2,.36,1.54,1.54,0,0,1-.16-2,2.71,2.71,0,0,1,1.07-.86.38.38,0,0,0-.09-.38c-2-1.61-4-1.69-5.72-3.08s-2.72-3.56-1.45-5.46l.19-.26c1.61-.46,1.7-1.55,3.54,0,.89.72,1.69,2.2,1,3.29-.16.23-.65.89-1,.63.29-1.39.42-2.39-.79-3.38a1.73,1.73,0,0,0-2.6.07c-.82,1.24.1,2.79,1.1,3.61,1.65,1.35,3.85,1.39,5.5,2.74.59.48.87,1.28,1.44,1.74a.92.92,0,0,0,.21.13,3.5,3.5,0,0,0,2.46-1.32,1.07,1.07,0,0,0-.23-1.4c-.34-.28-.82-.13-1.16-.38l0-.14c.32-.46,1.54,0,1.91.27a2,2,0,0,1,.46,2.58c-.79,1.18-2.66.75-3.16,1.51C351.55,178.48,351.7,179.21,351.36,179.71Zm-8.13-8,0-.12-.1.05v.08Zm-.1-.43,0-.12H343v.14Zm0-.43-.11-.09-.07.09A.11.11,0,0,0,343.1,170.9Zm.61,1.68,0,0h-.05Zm0-.32c.07-.1.06-.16,0-.24C343.56,172.12,343.56,172.18,343.66,172.26Zm.57.8v-.15l-.12,0v.13Zm-.08-.48-.06-.05v.06Zm.6.8,0-.12h0l-.13,0,0,.11Zm-.1-.33c0-.05.08-.15,0-.2l-.11,0,0,.05Zm.49.73h0s0,0,0,0h0S345.14,173.78,345.14,173.78Zm0-.5-.08-.06-.06.1C345.05,173.37,345.1,173.33,345.13,173.28Zm.46.45h0l0-.12-.14.11S345.56,173.78,345.59,173.73Zm.52.81v-.15l-.09,0,0,0Zm0-.37V174H346l0,.13Zm-.07-.37c0-.05.09-.18,0-.23l-.13,0-.05.07Zm.5.79,0-.06a.15.15,0,0,0,0-.19l-.13,0C346.38,174.46,346.47,174.55,346.52,174.59Zm0-.53,0-.11-.16,0,0,.12Zm.49.38-.1-.08-.05.08C346.89,174.48,346.94,174.5,347,174.44Zm-.11-.43v-.12l-.11,0v0l0,.12Zm.56.85,0-.12h-.14l0,.12Zm0-.36-.06-.21-.12,0,0,.16Zm3.3,5.12c.22-.34.53-1.17.12-1.5l-.06-.06a1.56,1.56,0,0,0-1.21.62.77.77,0,0,0,.07,1.09A.73.73,0,0,0,350.74,179.62Zm-2.39-4.43,0-.18-.12,0,0,.15Zm0-.45,0-.18-.13.05,0,.13Zm.42.4V175a.09.09,0,0,0-.11,0v.09A.08.08,0,0,0,348.73,175.14Zm-.06-.43v-.09l-.14.06Zm.84,1.09-.05-.14-.09.13Zm-2-5.53a0,0,0,0,0,0,0,0,0,0,0,0,0,0h0A0,0,0,0,0,347.47,170.27Zm2.35,5.07v-.13c-.13-.1-.31,0-.39.15A.26.26,0,0,0,349.82,175.34Zm-2.35-5.51-.06-.06s0,0,0,.1S347.45,169.86,347.47,169.83Zm3.15,7.68h0v-.14l-.11,0,0,.11Zm.71,1.66-.06,0,0,0S351.29,179.19,351.33,179.17Zm-.91-2.6,0-.06s0,0-.08,0S350.39,176.55,350.42,176.57Zm0-.44-.05-.14-.09.13Zm-.07-.41-.05-.15-.09.14ZM351,177l0-.13h-.08l0,.11Zm.54,1.19s0-.05,0-.08-.06,0-.07,0,0,0,0,.07A.08.08,0,0,0,351.55,178.19Zm1.17-1.06-.16,0,0,.09Zm.64-.48,0,0,0,0Zm.06,0a0,0,0,0,0,0,0,0,0,0,0,0,0,0s0,0,0,0S353.42,176.63,353.42,176.63Zm.46.34,0,0s0,0-.08,0Zm-.06-.35v-.15l-.12,0,0,.15Zm.37,0,.07-.1-.13,0Zm-.09-.45,0-.07,0,0-.05.07Zm.72-.68a0,0,0,0,0,0,0s0,0,0,0a0,0,0,0,0,0,0S354.82,175.45,354.82,175.45Zm-.07-.29.1-.08-.11-.09v.16Zm0-.55,0-.09-.12.08A.3.3,0,0,0,354.77,174.61Z" style="fill: rgb(250, 250, 250); transform-origin: 348.88px 173.78px;" id="elg03bfc4zzgl" class="animable"></path><path d="M352.18,171c-.89-1.76-2.17-2.26-2.05-4.57,0-.55.39-1,.39-1.54.28-.41,1-1.48,1.53-1,.1.08.22.23.13.36-.23.35-.71.4-.94.75-1.21,1.8.77,3.91,2.07,5,.81.67,2.41,1.84,3.2.66a2.09,2.09,0,0,0-.31-2.48c-.16-.13-2.15.72-3.48-.37-.77-.62-1.52-1.62-.86-2.61.89-1.33,2.59-.09,3.53.67.36.3.7.68,1.06,1a.43.43,0,0,0,.12-.11c.74-1.1-.46-3.48-.3-3.73a.19.19,0,0,1,.24,0l.08.07c.88,1.7,0,2.74.12,4.38,0,.37.33.68.44,1a5.58,5.58,0,0,1-.06,2.37l-.36.53c-.4,0-.69.37-1,.57-1.22.73-1.83-.57-3-.44Zm-1.11-2.46,0-.11h-.11l0,.12Zm0-.51-.16,0v.14Zm.57,1.83,0,0-.07,0,0,0Zm.52.38-.1-.21c0,.05-.1.19,0,.24v0Zm-1.56-4.41-.05-.11-.09,0,0,.08Zm2.06,4.73-.18-.06.05.14Zm.41.49s.06-.13,0-.16H353C353,170.92,353.05,171,353.1,171Zm.46.38.06-.1-.12,0Zm-.1-.47s.07,0,.09,0l0-.12h-.1v0l0,.12Zm0-.4.06-.1-.06-.05-.07.1Zm.55.35,0-.09h-.1l0,.1A.08.08,0,0,0,354,170.88Zm1.72-3.24c.16-.23-.23-.6-.39-.73l-1.56-1.27c-.41-.34-1.17-.68-1.52-.14s.31,1.06.65,1.33C353.41,167.29,355.13,168.46,355.68,167.64Zm-2.7-.33s-.1-.07-.15,0l0,.12C352.91,167.41,353,167.35,353,167.31Zm1.93,4.34,0-.13h-.13l0,.12Zm.47-.15-.15,0v.14Zm.28,0a0,0,0,0,0,0,0h0s0,0,0,0S355.66,171.52,355.66,171.52Z" style="fill: rgb(250, 250, 250); transform-origin: 353.686px 167.581px;" id="elugo6p2ygeo" class="animable"></path><path d="M353.55,161.39a.5.5,0,0,1,0-.13l.4-.6c.45-.66,2.8,1.32,3.29,1.72s3,2.55,3.44,2c.21-.32-1.28-2.87-1.61-3.14-.74-.61-1.73-.49-2.51-1.13s-1.52-1.68-.9-2.62c.37-.55,1-.38,1.48,0,.95.78,1.07,2.17,2,2.93.38.31.83-.07,1-.38.53-.79.15-1.92-.18-2.73.07-.12.14-.25.29-.12.78.63.52,2.56,0,3.28-.17.27-.49.37-.67.64-.35.53,2.3,3.06,1.47,4.3-1,1.48-6-2.59-7-3.42Zm.61.05,0-.14H354v.15Zm.84.36c.05-.09,0-.15-.09-.2l-.06.13v.06S355,161.85,355,161.8Zm-.08-.48,0-.07s-.08,0-.11,0A.13.13,0,0,0,354.92,161.32Zm.54.93c0-.05.08-.16,0-.22l-.11,0C355.32,162.12,355.41,162.21,355.46,162.25Zm-.08-.5.05-.09s-.1-.06-.14,0v0Zm.59.79,0-.07s-.08,0-.11,0A.13.13,0,0,0,356,162.54Zm-.12-.41,0-.06s-.06,0-.07,0v0Zm.6.8v-.1l-.2.07C356.3,162.94,356.4,163,356.45,162.93Zm-.23-.94s0,0,0,0,0,0,0,0a0,0,0,0,0,0,0A0,0,0,0,0,356.22,162Zm.7,1.33,0-.08-.08,0A.11.11,0,0,0,356.92,163.32Zm.44.46.06-.1-.09-.08-.07.1Zm-.08-1-.09-.08-.08.11A.1.1,0,0,0,357.28,162.79Zm.54,1.29s0,0,0,0,0,0,0,0a0,0,0,0,0,0,0S357.82,164.08,357.82,164.08Zm-.21-1a0,0,0,0,0,0,0s0,0,0,0,0,0,0,0Zm-1.35-3.81s0-.06,0-.08l0,0Zm2,4.76,0-.07s-.08,0-.1,0v0Zm-1.47-4.4,0-.08s-.08,0-.1.05A.13.13,0,0,0,356.76,159.68Zm1,.25c.11.09.65.53.78.35a.5.5,0,0,0,0-.13A5.63,5.63,0,0,0,357,157.9c-.22-.19-.62-.51-.84-.18-.38.57.6,1.38,1,1.67Zm1,4.51,0-.14-.09.13ZM357.2,160l0,0a.07.07,0,0,0-.08,0l0,0A.09.09,0,0,0,357.2,160Zm2.11,4.77-.17-.14-.05.22C359.17,165,359.27,164.88,359.31,164.81Zm-.16-.42v-.13l-.12,0v.13Zm.5.8,0,0h-.05Zm-.08-.4,0-.1-.06,0v.09Zm.5.43.11-.17,0-.08L360,165l0,.17Zm-.09-.53v-.06l0,.06Zm.51.41V165l-.14,0,0,.1Zm-1.56-4.34a0,0,0,0,0,0,0s0,0,0,0a0,0,0,0,0,0,0S358.93,160.76,358.93,160.76Zm1.93,4.41c.09-.13.08-.19,0-.29C360.73,165,360.74,165.07,360.86,165.17Z" style="fill: rgb(250, 250, 250); transform-origin: 357.379px 161.433px;" id="elhju0xpyaom" class="animable"></path><path d="M360.27,158.17c-.11-.43-.67-.76-.92-1.12a4.68,4.68,0,0,1-.9-2.91c0-.43.29-.84.29-1.25l.41-.6c.88-.18,1.33-1,2.27-.2,1.82,1.49-.35,4.81.55,5.55a1.93,1.93,0,0,0,2.9-.11,4.9,4.9,0,0,0,.33-3.13v0l.31,0c.85.72-.29,3-.23,3.79l-.38.57c-.33.09-.55.39-.85.54-1.07.54-2.57-.09-3.49-.84Zm-1.41-2.92s.07,0,.09,0v-.11h-.13l0,.12Zm.21.38,0,0,0,0Zm-.21-.79a.09.09,0,0,0,0-.11l0,.06Zm.69,1.7,0-.07-.06-.05A.08.08,0,0,0,359.55,156.54Zm0-.41,0-.15h-.13l0,.13Zm-.06-.49a.13.13,0,0,0,0-.16l0,0-.13,0v.17Zm.6,1.3v-.13l-.13,0V157Zm-.67-1.79a.13.13,0,0,0-.13,0l.05.09Zm.66,1.36,0-.16-.16,0,0,.14Zm-.19-.44,0-.07s0,0-.08,0S359.82,156.05,359.86,156.07Zm1.61,1a3.45,3.45,0,0,0-.79-4.1c-.47-.39-.9-.48-1.29.1-.83,1.24.75,3.06,1.65,3.8l.33.28A.44.44,0,0,0,361.47,157Zm-.88.73,0,0-.07-.05,0,0Zm0-.4v-.17l-.07,0,0,0Zm-.06-.47,0-.13-.09,0v.11Zm.56,1.23V158l-.06,0a.19.19,0,0,0,0,.08Zm0-.44-.05-.14-.09.13Zm.63.82,0-.1-.17,0v.16Zm-.22-.38c.09-.13.16-.41,0-.53l-.11,0A.37.37,0,0,0,361.45,158.12Zm.66.82-.05-.19-.14,0,0,.13Zm-.12-.4v0a.12.12,0,0,0,0-.15h-.13l0,.18Zm-.07-.5,0-.1c-.06-.05-.12,0-.15.05S361.88,158.11,361.92,158Zm.57.85,0,0-.07-.11h-.11v0l0,.11A.09.09,0,0,0,362.49,158.89Zm-.13-.47,0-.06-.06-.05,0,.06Zm-2.16-6.09,0-.09-.09,0,0,.12Zm2.63,6.48v-.15l-.12,0,0,.15Zm-1.75-6.15s-.09-.08-.14,0l0,.12C361,152.76,361.06,152.69,361.08,152.66Zm.49.4-.08-.17-.11.17Zm2.88,5.53v-.06h-.05Z" style="fill: rgb(250, 250, 250); transform-origin: 362.137px 155.624px;" id="elhf1oqw38rqw" class="animable"></path></g></g><path d="M308.3,130h0a1.5,1.5,0,0,1-1.5-1.5c0-3.8-2.69-5.88-4.95-7-5.5-2.62-13.8-1.87-18.12,1.63a1.5,1.5,0,1,1-1.9-2.33c5.22-4.22,14.77-5.12,21.32-2,4.29,2,6.65,5.48,6.65,9.67A1.5,1.5,0,0,1,308.3,130Z" style="fill: rgb(55, 71, 79); transform-origin: 295.539px 123.47px;" id="elk3bg02pf8xf" class="animable"></path></g></g></g><g id="freepik--Sparkles--inject-116" class="animable" style="transform-origin: 249.206px 178.648px;"><g id="freepik--Shine--inject-116"><g style="opacity: 0.5; transform-origin: 249.206px 178.648px;" class="animable"><g id="freepik--shine--inject-116" class="animable" style="transform-origin: 403.962px 138.792px;"><path d="M411.45,159.85l-1-11.29a2,2,0,0,0-1.77-1.81l-8.85-1a.41.41,0,0,1-.36-.41.39.39,0,0,1,.36-.4l8.85-1a2,2,0,0,0,1.77-1.81l1-11.28a.41.41,0,0,1,.82,0l1,11.28a2,2,0,0,0,1.78,1.81l8.84,1a.39.39,0,0,1,.36.4.41.41,0,0,1-.36.41l-8.84,1a2,2,0,0,0-1.78,1.81l-1,11.29a.41.41,0,0,1-.82,0Zm3.52-15a2.83,2.83,0,0,1-2.5-2.55h0l-.61-6.78-.61,6.78a2.83,2.83,0,0,1-2.5,2.55l-5.17.57,5.17.57a2.83,2.83,0,0,1,2.5,2.55l.61,6.78.61-6.78a2.83,2.83,0,0,1,2.5-2.55l5.18-.57Zm-2.1-2.58h0Z" style="fill: rgb(186, 104, 200); transform-origin: 411.86px 145.35px;" id="elh9qvxqzhlx" class="animable"></path><g id="elkyue1wsdw2"><g style="opacity: 0.5; transform-origin: 392.21px 127.535px;" class="animable"><path d="M391.8,137.4l-.69-7.68a1.23,1.23,0,0,0-1.09-1.11l-6-.67a.41.41,0,0,1,0-.81l6-.67a1.23,1.23,0,0,0,1.09-1.11l.69-7.68a.41.41,0,0,1,.81,0l.69,7.68a1.24,1.24,0,0,0,1.1,1.11l6,.67a.41.41,0,0,1,0,.81l-6,.67a1.24,1.24,0,0,0-1.1,1.11l-.69,7.68a.41.41,0,0,1-.81,0Zm2.51-10.13a2,2,0,0,1-1.82-1.85h0l-.28-3.18-.29,3.18a2,2,0,0,1-1.81,1.85l-2.36.26,2.36.27a2,2,0,0,1,1.81,1.85l.29,3.18.28-3.18a2,2,0,0,1,1.82-1.85l2.36-.27Zm-1.42-1.88h0Z" style="fill: rgb(186, 104, 200); transform-origin: 392.21px 127.535px;" id="ellik7owdupsr" class="animable"></path></g></g></g><g id="freepik--shine--inject-116" class="animable" style="transform-origin: 336.915px 59.72px;"><path d="M330.36,70.08l-.84-9.31a1.66,1.66,0,0,0-1.46-1.5l-7.3-.8a.34.34,0,0,1-.29-.34.33.33,0,0,1,.29-.33l7.3-.81a1.64,1.64,0,0,0,1.46-1.49h0l.84-9.31a.35.35,0,0,1,.34-.31.34.34,0,0,1,.33.31l.84,9.31A1.65,1.65,0,0,0,333.33,57l7.3.81a.33.33,0,0,1,.3.33.34.34,0,0,1-.3.34l-7.3.8a1.67,1.67,0,0,0-1.46,1.5L331,70.08a.33.33,0,0,1-.33.3A.34.34,0,0,1,330.36,70.08Zm2.9-12.42a2.33,2.33,0,0,1-2.06-2.1l-.5-5.6-.51,5.6a2.32,2.32,0,0,1-2.06,2.1l-4.27.47,4.27.48a2.32,2.32,0,0,1,2.06,2.1l.51,5.59.5-5.59a2.33,2.33,0,0,1,2.06-2.1l4.27-.48Z" style="fill: rgb(186, 104, 200); transform-origin: 330.7px 58.13px;" id="elbrlk9dcinsu" class="animable"></path><g id="elqyac6ra08fn"><g style="opacity: 0.5; transform-origin: 347.56px 66.655px;" class="animable"><path d="M347.3,73.27l-.46-5.18a.83.83,0,0,0-.74-.75L342,66.89a.28.28,0,0,1-.24-.28.27.27,0,0,1,.24-.27l4.06-.45a.84.84,0,0,0,.74-.75L347.3,60a.28.28,0,0,1,.28-.25h0a.27.27,0,0,1,.27.25l.47,5.18a.82.82,0,0,0,.73.75l4.06.45a.28.28,0,0,1,.25.27.29.29,0,0,1-.25.28l-4.06.45a.81.81,0,0,0-.73.75l-.47,5.18a.27.27,0,0,1-.27.25A.28.28,0,0,1,347.3,73.27ZM349,66.44a1.38,1.38,0,0,1-1.22-1.25l-.19-2.14-.2,2.14h0a1.38,1.38,0,0,1-1.22,1.25l-1.59.17,1.59.18A1.38,1.38,0,0,1,347.38,68l.2,2.14.19-2.14A1.38,1.38,0,0,1,349,66.79l1.59-.18Z" style="fill: rgb(186, 104, 200); transform-origin: 347.56px 66.655px;" id="elca5vvak683" class="animable"></path></g></g></g><g id="freepik--shine--inject-116" class="animable" style="transform-origin: 409.915px 294.315px;"><path d="M414.68,298.19l-.84-9.31a1.66,1.66,0,0,0-1.47-1.49l-7.29-.81a.33.33,0,0,1,0-.66l7.29-.81a1.66,1.66,0,0,0,1.47-1.49h0l.84-9.31A.33.33,0,0,1,415,274a.35.35,0,0,1,.34.31l.84,9.31a1.64,1.64,0,0,0,1.46,1.49l7.29.81a.33.33,0,0,1,0,.66l-7.29.81a1.64,1.64,0,0,0-1.46,1.49l-.84,9.31a.35.35,0,0,1-.34.31A.33.33,0,0,1,414.68,298.19Zm2.89-12.41a2.32,2.32,0,0,1-2.05-2.1l-.51-5.6-.5,5.6a2.34,2.34,0,0,1-2.06,2.1l-4.27.47,4.27.47a2.34,2.34,0,0,1,2.06,2.1l.5,5.6.51-5.6a2.32,2.32,0,0,1,2.05-2.1l4.28-.47Z" style="fill: rgb(186, 104, 200); transform-origin: 415.005px 286.25px;" id="eltvyt0nzsh0l" class="animable"></path><g id="el0ofat3h0u30l"><g style="opacity: 0.5; transform-origin: 400.35px 307.725px;" class="animable"><path d="M400.07,314.38l-.46-5.18a.84.84,0,0,0-.74-.75l-4.06-.45a.27.27,0,0,1-.24-.27.28.28,0,0,1,.24-.28l4.06-.45a.84.84,0,0,0,.74-.75l.46-5.18a.28.28,0,0,1,.28-.25h0a.27.27,0,0,1,.27.25l.47,5.18a.82.82,0,0,0,.73.75l4.06.45a.29.29,0,0,1,.25.28.28.28,0,0,1-.25.27l-4.06.45a.82.82,0,0,0-.73.75l-.47,5.18a.27.27,0,0,1-.27.25A.28.28,0,0,1,400.07,314.38Zm1.69-6.83a1.38,1.38,0,0,1-1.22-1.25l-.19-2.14-.2,2.14h0a1.38,1.38,0,0,1-1.22,1.25l-1.59.18,1.59.17a1.38,1.38,0,0,1,1.22,1.25l.2,2.14.19-2.14a1.38,1.38,0,0,1,1.22-1.25l1.59-.17Z" style="fill: rgb(186, 104, 200); transform-origin: 400.35px 307.725px;" id="elzuxv1huo9bd" class="animable"></path></g></g></g><g id="freepik--shine--inject-116" class="animable" style="transform-origin: 76.22px 217.526px;"><path d="M76,225.59l-.57-6.28a1.11,1.11,0,0,0-1-1l-4.93-.54a.24.24,0,0,1-.2-.23.23.23,0,0,1,.2-.22l4.93-.55a1.11,1.11,0,0,0,1-1h0l.57-6.28a.23.23,0,0,1,.23-.2.23.23,0,0,1,.22.2l.57,6.28a1.12,1.12,0,0,0,1,1l4.92.55a.23.23,0,0,1,.2.22.24.24,0,0,1-.2.23L78,218.3a1.12,1.12,0,0,0-1,1l-.57,6.28a.23.23,0,0,1-.45,0Zm2-8.38a1.56,1.56,0,0,1-1.39-1.41L76.21,212l-.34,3.78a1.57,1.57,0,0,1-1.39,1.41l-2.89.32,2.89.32a1.58,1.58,0,0,1,1.39,1.42l.34,3.77.34-3.77a1.57,1.57,0,0,1,1.39-1.42l2.88-.32Z" style="fill: rgb(186, 104, 200); transform-origin: 76.22px 217.526px;" id="eljkuidtgp73" class="animable"></path></g><g id="freepik--shine--inject-116" class="animable" style="transform-origin: 113.92px 123.265px;"><path d="M111,125.51l-.88-9.79a1.75,1.75,0,0,0-1.54-1.57l-7.67-.85a.35.35,0,0,1,0-.7l7.67-.85a1.75,1.75,0,0,0,1.54-1.57l.88-9.79a.36.36,0,0,1,.71,0l.88,9.79a1.74,1.74,0,0,0,1.54,1.57l7.67.85a.35.35,0,0,1,0,.7l-7.67.85a1.74,1.74,0,0,0-1.54,1.57l-.88,9.79a.36.36,0,0,1-.71,0Zm3-13.06a2.45,2.45,0,0,1-2.17-2.21l-.53-5.88-.53,5.88h0a2.43,2.43,0,0,1-2.16,2.21l-4.5.5,4.5.5a2.43,2.43,0,0,1,2.16,2.21l.53,5.88.53-5.88a2.45,2.45,0,0,1,2.17-2.21l4.49-.5Z" style="fill: rgb(186, 104, 200); transform-origin: 111.355px 112.95px;" id="el30anz4nmhx" class="animable"></path><g id="el5wjmmkfr7f"><g style="opacity: 0.5; transform-origin: 126.985px 124.995px;" class="animable"><path d="M126.6,133.59l-.6-6.67a1.06,1.06,0,0,0-.94-1l-5.23-.58a.35.35,0,0,1-.31-.35.34.34,0,0,1,.31-.35l5.23-.58a1.07,1.07,0,0,0,.94-1h0l.6-6.66a.36.36,0,0,1,.71,0l.6,6.66a1.07,1.07,0,0,0,1,1l5.22.58a.35.35,0,0,1,.32.35.36.36,0,0,1-.32.35l-5.22.58a1.06,1.06,0,0,0-1,1l-.6,6.67a.36.36,0,0,1-.71,0Zm2.18-8.79a1.77,1.77,0,0,1-1.57-1.61l-.25-2.76-.25,2.76a1.79,1.79,0,0,1-1.57,1.61l-2,.23,2,.22a1.8,1.8,0,0,1,1.57,1.61l.25,2.76.25-2.76a1.78,1.78,0,0,1,1.57-1.61l2-.22Z" style="fill: rgb(186, 104, 200); transform-origin: 126.985px 124.995px;" id="elngrfj6w57vk" class="animable"></path></g></g><g id="elh05osvv844o"><g style="opacity: 0.5; transform-origin: 100.85px 137.55px;" class="animable"><path d="M100.52,146.14l-.6-6.67a1.08,1.08,0,0,0-1-1l-5.22-.57a.35.35,0,0,1-.31-.35.36.36,0,0,1,.31-.36l5.22-.57a1.07,1.07,0,0,0,1-1h0l.6-6.66a.36.36,0,0,1,.71,0l.6,6.66a1.07,1.07,0,0,0,.94,1l5.23.57a.36.36,0,0,1,.31.36.35.35,0,0,1-.31.35l-5.23.57a1.07,1.07,0,0,0-.94,1l-.6,6.67a.36.36,0,0,1-.71,0Zm2.18-8.79a1.79,1.79,0,0,1-1.58-1.61l-.25-2.76-.25,2.76a1.77,1.77,0,0,1-1.57,1.61l-2,.23,2,.22a1.78,1.78,0,0,1,1.57,1.61l.25,2.76.25-2.76a1.79,1.79,0,0,1,1.58-1.61l2-.22Z" style="fill: rgb(186, 104, 200); transform-origin: 100.85px 137.55px;" id="elbdm6uxx0xm4" class="animable"></path></g></g></g><g id="freepik--shine--inject-116"><g style="opacity: 0.5; transform-origin: 175.09px 70.115px;" class="animable"><path d="M174.74,78.48,174.16,72a1.05,1.05,0,0,0-.93-.95l-5.12-.57a.34.34,0,0,1,0-.68l5.12-.57a1.05,1.05,0,0,0,.93-1l.58-6.52a.36.36,0,0,1,.35-.32.34.34,0,0,1,.34.32l.59,6.52a1.05,1.05,0,0,0,.93,1l5.12.57a.34.34,0,0,1,0,.68L177,71A1.05,1.05,0,0,0,176,72l-.59,6.52a.34.34,0,0,1-.34.32A.36.36,0,0,1,174.74,78.48Zm2.13-8.6a1.75,1.75,0,0,1-1.54-1.57l-.24-2.71-.25,2.71h0a1.74,1.74,0,0,1-1.54,1.57l-2,.22,2,.22a1.74,1.74,0,0,1,1.54,1.57l.25,2.71.24-2.71a1.75,1.75,0,0,1,1.54-1.57l2-.22Z" style="fill: rgb(186, 104, 200); transform-origin: 175.09px 70.115px;" id="el3cgaaj5bo4x" class="animable"></path></g></g><g id="freepik--shine--inject-116"><g style="opacity: 0.5; transform-origin: 156.535px 53.57px;" class="animable"><path d="M156.1,64.1l-.74-8.19a1.31,1.31,0,0,0-1.16-1.19L147.77,54a.43.43,0,0,1-.38-.43.42.42,0,0,1,.38-.43l6.43-.72a1.3,1.3,0,0,0,1.16-1.18l.74-8.2a.44.44,0,0,1,.87,0l.73,8.2a1.31,1.31,0,0,0,1.17,1.18l6.42.72a.43.43,0,0,1,.39.43.44.44,0,0,1-.39.43l-6.42.71a1.33,1.33,0,0,0-1.17,1.19L157,64.1a.44.44,0,0,1-.87,0Zm2.67-10.8a2.18,2.18,0,0,1-1.93-2l-.31-3.39-.3,3.39h0a2.19,2.19,0,0,1-1.94,2l-2.51.28,2.51.28a2.19,2.19,0,0,1,1.94,2l.3,3.39.31-3.39a2.18,2.18,0,0,1,1.93-2l2.52-.28Z" style="fill: rgb(186, 104, 200); transform-origin: 156.535px 53.57px;" id="eldr9zzpnx28v" class="animable"></path></g></g><g id="freepik--shine--inject-116"><g style="opacity: 0.5; transform-origin: 421.845px 219.235px;" class="animable"><path d="M421.5,227.64l-.59-6.52a1,1,0,0,0-.92-1l-5.12-.56a.35.35,0,0,1,0-.69l5.12-.57a1,1,0,0,0,.92-.94l.59-6.53a.36.36,0,0,1,.35-.32.34.34,0,0,1,.34.32l.59,6.52a1,1,0,0,0,.93.95l5.11.57a.35.35,0,0,1,0,.69l-5.11.56a1,1,0,0,0-.93,1l-.59,6.52a.34.34,0,0,1-.34.32A.36.36,0,0,1,421.5,227.64Zm2.13-8.6a1.74,1.74,0,0,1-1.54-1.57l-.24-2.71-.25,2.71h0a1.74,1.74,0,0,1-1.54,1.57l-2,.22,2,.22a1.74,1.74,0,0,1,1.54,1.58l.25,2.7.24-2.7a1.74,1.74,0,0,1,1.54-1.58l2-.22Z" style="fill: rgb(186, 104, 200); transform-origin: 421.845px 219.235px;" id="elcq63yd3appe" class="animable"></path></g></g><g id="freepik--shine--inject-116"><g style="opacity: 0.5; transform-origin: 104.805px 305.105px;" class="animable"><path d="M104.46,313.51l-.59-6.52a1,1,0,0,0-.93-.95l-5.11-.57a.34.34,0,0,1,0-.68l5.11-.57a1,1,0,0,0,.93-1l.59-6.52a.34.34,0,0,1,.34-.32.36.36,0,0,1,.35.32l.59,6.52a1,1,0,0,0,.92,1l5.12.57a.34.34,0,0,1,0,.68l-5.12.57a1,1,0,0,0-.92.95l-.59,6.52a.36.36,0,0,1-.35.32A.34.34,0,0,1,104.46,313.51Zm2.13-8.6a1.74,1.74,0,0,1-1.54-1.58l-.25-2.7-.24,2.7h0a1.74,1.74,0,0,1-1.54,1.57l-2,.22,2,.22a1.74,1.74,0,0,1,1.54,1.57l.24,2.71.25-2.71a1.74,1.74,0,0,1,1.54-1.57l2-.22Z" style="fill: rgb(186, 104, 200); transform-origin: 104.805px 305.105px;" id="elztwamt58xln" class="animable"></path></g></g><g id="freepik--shine--inject-116"><g style="opacity: 0.5; transform-origin: 88.075px 243.55px;" class="animable"><path d="M87.59,254.46,86.82,246a1.36,1.36,0,0,0-1.2-1.23L79,244a.45.45,0,0,1,0-.9l6.66-.74a1.35,1.35,0,0,0,1.2-1.23l.77-8.48a.45.45,0,0,1,.89,0l.77,8.48a1.35,1.35,0,0,0,1.2,1.23l6.66.74a.45.45,0,0,1,0,.9l-6.66.73a1.36,1.36,0,0,0-1.2,1.23l-.77,8.49a.45.45,0,0,1-.89,0Zm2.77-11.19a2.28,2.28,0,0,1-2-2.05L88,237.71l-.32,3.51h0a2.28,2.28,0,0,1-2,2l-2.6.29,2.6.28a2.28,2.28,0,0,1,2,2L88,249.4l.31-3.51a2.28,2.28,0,0,1,2-2l2.6-.28Z" style="fill: rgb(186, 104, 200); transform-origin: 88.075px 243.55px;" id="elz5fqsrezuyk" class="animable"></path></g></g></g></g></g><defs>     <filter id="active" height="200%">         <feMorphology in="SourceAlpha" result="DILATED" operator="dilate" radius="2"></feMorphology>                <feFlood flood-color="#32DFEC" flood-opacity="1" result="PINK"></feFlood>        <feComposite in="PINK" in2="DILATED" operator="in" result="OUTLINE"></feComposite>        <feMerge>            <feMergeNode in="OUTLINE"></feMergeNode>            <feMergeNode in="SourceGraphic"></feMergeNode>        </feMerge>    </filter>    <filter id="hover" height="200%">        <feMorphology in="SourceAlpha" result="DILATED" operator="dilate" radius="2"></feMorphology>                <feFlood flood-color="#ff0000" flood-opacity="0.5" result="PINK"></feFlood>        <feComposite in="PINK" in2="DILATED" operator="in" result="OUTLINE"></feComposite>        <feMerge>            <feMergeNode in="OUTLINE"></feMergeNode>            <feMergeNode in="SourceGraphic"></feMergeNode>        </feMerge>            <feColorMatrix type="matrix" values="0   0   0   0   0                0   1   0   0   0                0   0   0   0   0                0   0   0   1   0 "></feColorMatrix>    </filter></defs></svg>